<?xml version="1.0" standalone="no"?>
<!DOCTYPE svg PUBLIC "-//W3C//DTD SVG 20010904//EN"
 "http://www.w3.org/TR/2001/REC-SVG-20010904/DTD/svg10.dtd">
<svg version="1.0" xmlns="http://www.w3.org/2000/svg"
 width="512.000000pt" height="512.000000pt" viewBox="0 0 512.000000 512.000000"
 preserveAspectRatio="xMidYMid meet">
<metadata>
Created by potrace 1.16, written by Peter Selinger 2001-2019
</metadata>
<g transform="translate(0.000000,512.000000) scale(0.100000,-0.100000)"
fill="#000000" stroke="none">
<path d="M225 5110 c11 -5 40 -9 65 -9 25 0 54 4 65 9 13 6 -9 9 -65 9 -56 0
-78 -3 -65 -9z"/>
<path d="M438 5114 c-3 -3 -36 -12 -72 -19 -163 -34 -256 -134 -200 -214 36
-51 114 -62 264 -37 99 17 640 60 648 51 19 -19 -61 -44 -143 -45 -67 0 -186
-26 -204 -44 -12 -13 -11 -16 10 -26 18 -8 37 -7 79 6 59 18 232 31 194 15
-12 -5 -24 -17 -28 -26 -13 -34 33 -175 58 -175 6 0 22 7 35 16 20 14 22 22
17 56 -4 22 -16 58 -27 80 -19 38 -20 41 -3 59 17 19 18 18 30 -18 18 -50 38
-63 101 -63 58 0 108 20 163 67 l33 27 16 -24 c38 -57 46 -63 60 -47 10 13 7
22 -23 55 -20 21 -33 42 -29 46 3 3 22 6 42 6 34 0 50 -8 115 -54 37 -26 47
-10 11 19 -33 26 -84 50 -128 60 -23 5 -26 8 -17 25 5 10 10 38 10 62 0 42 1
44 54 71 40 21 65 28 97 25 27 -2 44 1 46 10 8 22 -111 15 -159 -9 l-41 -21
-18 23 c-10 13 -17 29 -15 35 3 9 -36 12 -141 13 -113 1 -144 -2 -140 -11 2
-7 -5 -28 -16 -46 -11 -19 -25 -52 -32 -75 l-12 -42 -142 -3 c-132 -2 -141 -1
-141 16 0 36 29 115 51 138 l22 24 -210 0 c-115 0 -212 -3 -215 -6z m822 -14
c40 -25 -3 -155 -64 -195 -40 -27 -84 -35 -90 -18 -23 58 16 162 73 200 37 25
57 28 81 13z m-609 -40 c66 0 65 1 72 -77 4 -46 2 -53 -14 -53 -10 0 -24 10
-30 23 -31 60 -86 85 -128 58 -19 -12 -66 12 -88 45 -24 38 -3 45 69 23 33
-11 87 -19 119 -19z m-214 13 c3 -10 14 -27 24 -38 18 -20 17 -22 -54 -83 -74
-65 -109 -82 -135 -65 -24 15 -24 27 1 64 14 21 47 47 87 67 36 18 54 30 40
27 -14 -4 -47 -19 -75 -34 -84 -46 -110 -131 -42 -139 34 -4 69 15 147 82 35
30 69 52 75 48 44 -28 113 -87 109 -93 -2 -4 -26 -11 -52 -14 -26 -4 -89 -15
-141 -26 -114 -23 -163 -24 -201 -4 -105 54 -31 170 135 211 68 17 75 17 82
-3z m913 -21 c0 -33 -48 -118 -109 -195 -66 -83 -85 -97 -104 -78 -9 9 7 30
70 91 85 82 123 140 123 185 0 15 4 24 10 20 6 -3 10 -14 10 -23z m-706 -73
c55 -65 17 -80 -58 -22 -41 32 -45 38 -29 44 37 15 61 9 87 -22z m396 -59
c-25 -4 -128 -10 -230 -13 -184 -5 -184 -5 -85 8 109 13 394 18 315 5z"/>
<path d="M2260 5110 c-8 -5 -44 -9 -80 -8 -36 0 -78 -6 -95 -12 -16 -7 -40
-14 -52 -16 -26 -3 -129 -71 -185 -122 -36 -32 -48 -64 -30 -76 8 -5 196 131
217 157 6 6 24 13 40 14 17 0 59 4 95 8 l65 8 -52 -39 c-29 -22 -53 -43 -53
-48 0 -5 7 -18 16 -27 16 -17 14 -21 -20 -59 -59 -66 -103 -141 -157 -272 -66
-159 -69 -175 -35 -184 15 -3 55 -4 89 -2 137 8 290 128 421 328 20 30 36 60
36 66 0 7 -56 31 -125 54 -125 43 -185 72 -185 89 0 6 11 22 24 37 l23 28 -5
-32 c-4 -31 -2 -33 50 -56 30 -13 99 -39 154 -57 54 -18 100 -34 102 -35 2 -1
-13 -35 -33 -75 -45 -89 -59 -184 -30 -195 26 -10 53 27 60 84 3 26 10 70 16
97 6 28 15 68 19 91 12 56 50 120 61 102 5 -7 9 -68 9 -136 0 -102 3 -124 16
-129 31 -12 39 15 38 130 -1 63 -8 134 -16 162 l-15 50 -47 -50 c-25 -27 -49
-60 -52 -72 -6 -23 -24 -32 -24 -13 0 5 12 34 27 64 22 45 34 57 67 70 38 15
42 15 53 -1 42 -63 77 -103 89 -103 29 0 24 25 -19 80 l-46 59 30 18 29 19 63
-62 c34 -34 75 -76 90 -93 28 -31 37 -34 108 -46 20 -3 44 -14 54 -25 10 -11
24 -20 32 -20 37 0 -5 43 -92 94 -64 38 -216 148 -211 153 2 2 25 -7 52 -19
44 -21 66 -23 231 -25 174 -2 184 -3 233 -28 65 -33 76 -26 15 9 -46 27 -61
53 -25 43 10 -3 21 0 22 5 2 6 16 -9 32 -32 37 -56 24 -67 -44 -40 -77 30 -74
16 4 -21 36 -17 66 -35 66 -39 0 -11 -57 -30 -89 -30 -15 0 -43 11 -63 25 -24
16 -35 20 -32 11 17 -43 99 -64 163 -41 32 11 47 12 57 4 7 -6 36 -53 64 -105
28 -52 55 -94 60 -94 15 0 12 10 -24 83 -20 40 -30 70 -24 73 10 6 7 45 -7 77
-6 13 -2 17 17 17 38 0 91 41 101 77 12 41 3 63 -25 63 -16 0 -19 -3 -10 -9
25 -15 10 -64 -27 -88 -48 -32 -89 -31 -102 5 -13 34 -3 52 42 74 25 13 29 18
14 18 -11 0 -31 -7 -43 -16 -21 -15 -25 -15 -41 0 -29 26 -34 18 -12 -18 22
-35 27 -66 12 -66 -5 0 -21 21 -37 48 -15 26 -28 49 -30 51 -2 2 -25 -5 -51
-16 -43 -18 -67 -20 -218 -19 -130 2 -179 6 -207 18 -51 23 -122 21 -164 -4
-19 -11 -37 -18 -40 -15 -3 3 7 12 23 21 26 14 19 15 -122 15 l-150 1 39 -23
c39 -22 65 -51 55 -61 -3 -3 -40 6 -83 20 -65 22 -77 29 -73 45 4 16 -1 19
-36 19 -23 0 -49 -4 -57 -10z m39 -14 c-2 -2 -15 -9 -29 -16 -23 -12 -24 -12
-11 3 7 10 20 17 29 17 8 0 13 -2 11 -4z m1171 -166 c6 -11 7 -20 2 -20 -6 0
-12 9 -15 20 -3 11 -3 20 -1 20 2 0 8 -9 14 -20z m-1164 -104 c20 -25 46 -60
57 -78 17 -30 16 -29 -14 7 -18 22 -57 64 -86 93 -42 42 -47 49 -24 37 17 -8
47 -35 67 -59z m-67 -71 c45 -55 81 -104 81 -110 -1 -39 -20 -31 -101 38 -46
39 -97 81 -113 93 l-28 20 27 33 c15 17 33 31 41 29 7 -2 49 -48 93 -103z
m-189 -35 l-20 -39 24 -25 c36 -40 80 -106 73 -112 -3 -3 -20 -3 -37 1 -61 14
-87 102 -51 173 12 23 24 42 26 42 3 0 -4 -18 -15 -40z"/>
<path d="M3943 5092 c31 -15 57 -29 57 -33 0 -3 -22 -20 -49 -38 -63 -40 -165
-133 -244 -221 -126 -140 -166 -245 -115 -305 21 -24 34 -29 86 -33 55 -4 70
0 137 31 41 20 97 57 124 82 79 74 97 111 162 338 24 83 46 105 35 35 -4 -24
-22 -88 -40 -143 -37 -108 -81 -268 -90 -327 -6 -31 -4 -37 14 -43 11 -3 24
-4 29 -1 15 9 30 93 40 225 6 68 13 126 16 129 3 3 5 -42 5 -99 0 -120 16
-196 62 -286 50 -101 172 -223 222 -223 52 0 156 171 175 287 14 84 1 222 -28
307 -12 33 -19 61 -17 63 10 11 58 -143 66 -214 12 -109 19 -133 36 -126 18 7
18 33 0 97 -8 28 -20 76 -26 106 -13 67 -53 148 -110 223 -23 31 -46 73 -50
93 -8 34 -7 35 13 29 44 -15 102 -5 181 32 94 44 81 54 -25 19 -104 -34 -161
-43 -81 -12 81 31 85 36 29 36 -28 0 -59 -8 -81 -21 -36 -21 -56 -19 -56 7 0
11 -26 14 -147 14 l-148 0 -89 -83 c-195 -180 -384 -374 -405 -414 -33 -66
-25 -73 13 -11 38 64 103 145 122 152 9 3 4 -16 -12 -52 -25 -57 -54 -160 -54
-197 0 -15 8 -11 43 23 37 36 48 57 70 132 23 74 31 89 49 92 13 2 39 25 62
56 21 29 41 51 43 49 2 -2 -8 -29 -23 -61 -19 -42 -36 -62 -65 -79 -21 -12
-39 -26 -39 -30 0 -5 15 1 34 12 l34 21 27 -45 c25 -43 25 -48 11 -69 -36 -55
-192 -136 -263 -136 -31 0 -79 25 -87 45 -33 87 116 284 348 459 61 47 122 96
135 110 25 27 15 35 -18 14 -15 -9 -25 -9 -46 0 -14 7 -49 12 -78 11 l-52 0
58 -27z m211 -9 c-3 -16 -19 -55 -34 -88 -16 -33 -47 -111 -69 -173 -42 -117
-60 -157 -67 -150 -9 10 160 438 173 438 2 0 1 -12 -3 -27z m249 13 c4 -10
-11 -15 -68 -18 -51 -3 -89 -13 -124 -30 -47 -23 -62 -20 -43 9 4 7 28 21 52
32 54 25 175 29 183 7z m-285 -18 c-22 -34 -140 -368 -142 -400 0 -16 -2 -28
-3 -28 -2 0 -14 18 -28 39 l-25 40 36 78 c55 123 104 215 137 256 34 41 47 50
25 15z m276 -54 c9 -4 16 -18 16 -35 0 -24 -5 -30 -37 -38 -55 -16 -202 -35
-209 -28 -16 16 15 63 56 84 43 23 136 32 174 17z m-348 -12 c-3 -5 -21 -32
-40 -61 -21 -30 -33 -59 -30 -69 4 -13 3 -14 -4 -4 -7 10 -17 1 -42 -38 -32
-49 -65 -78 -78 -65 -15 14 57 121 123 181 68 62 82 73 71 56z m397 -84 c19
-12 6 -16 -123 -37 -69 -12 -135 -24 -147 -27 -29 -8 -30 11 -2 27 18 9 213
49 241 49 4 0 9 8 9 18 1 14 2 13 6 -3 3 -11 10 -23 16 -27z m-585 -105 c-16
-32 -41 -97 -55 -146 -16 -52 -38 -100 -54 -120 l-28 -32 -1 26 c0 35 27 124
57 184 26 52 92 145 104 145 3 0 -7 -26 -23 -57z m664 -66 c4 -6 8 -21 8 -33
0 -19 -7 -22 -77 -28 -66 -5 -139 -18 -295 -52 -26 -6 -28 -4 -28 25 0 37 24
51 138 77 144 34 237 38 254 11z m17 -99 c12 -31 6 -38 -32 -38 -18 -1 -107
-13 -199 -29 l-168 -27 0 27 c0 26 4 28 91 49 107 25 186 37 252 39 41 1 49
-2 56 -21z m-53 -200 c-47 -24 -224 -77 -258 -78 -10 0 -40 60 -31 61 5 0 78
11 163 23 199 30 195 30 126 -6z m-36 -179 c-14 -11 -37 -26 -53 -35 -29 -16
-51 -10 -91 25 -17 15 -14 16 50 22 38 3 80 6 94 7 l25 2 -25 -21z"/>
<path d="M4834 5086 c-10 -27 26 -76 79 -106 28 -16 57 -28 64 -26 6 3 14 -1
16 -9 4 -10 -13 -14 -78 -17 -55 -2 -89 -8 -97 -17 -11 -11 -8 -13 21 -7 19 3
65 9 103 13 80 7 87 -4 38 -60 -38 -44 -39 -59 -1 -23 l28 27 7 -25 c8 -31 32
-34 41 -5 6 17 9 19 16 8 5 -8 9 -10 9 -5 0 5 9 1 20 -9 26 -23 26 -11 0 22
-21 27 -19 46 5 36 12 -4 15 4 15 35 0 35 -4 41 -29 50 -18 6 -31 20 -35 36
-9 38 -26 32 -26 -9 0 -33 -2 -35 -20 -25 -39 21 -21 74 35 104 17 8 24 15 17
16 -45 1 -105 -70 -86 -101 18 -30 -58 36 -83 71 -29 41 -50 50 -59 26z m106
-94 c29 -28 31 -32 10 -22 -44 22 -91 61 -100 84 -14 37 3 41 29 6 14 -19 42
-50 61 -68z m110 -121 c0 -17 -12 -41 -20 -41 -10 0 -20 37 -12 44 9 9 32 7
32 -3z"/>
<path d="M4450 5021 c0 -18 50 -52 100 -69 108 -37 172 -34 98 4 -47 24 -198
74 -198 65z"/>
<path d="M2040 4990 c-45 -49 -114 -216 -140 -343 -15 -75 -61 -135 -122 -161
-74 -30 -118 -9 -104 49 6 22 9 24 27 15 14 -8 30 -8 57 1 55 18 85 42 110 90
13 24 15 33 5 19 -35 -50 -84 -89 -119 -96 -19 -3 -38 -3 -41 0 -10 9 49 125
83 165 16 19 45 46 67 62 21 15 33 30 27 34 -19 12 -126 -108 -164 -183 -20
-40 -40 -72 -45 -72 -5 0 -14 -13 -21 -29 -9 -22 -9 -34 0 -51 12 -22 52 -42
72 -36 7 3 25 7 40 10 37 8 95 60 118 106 10 20 28 74 39 119 23 92 94 263
117 282 18 15 37 49 28 49 -3 0 -18 -13 -34 -30z"/>
<path d="M33 4964 c-48 -24 -40 -36 9 -14 52 23 81 13 76 -28 -2 -20 -8 -26
-23 -25 -11 2 -38 5 -60 8 -36 4 -35 3 14 -12 57 -17 83 -11 89 20 4 19 -40
67 -60 67 -7 0 -28 -8 -45 -16z"/>
<path d="M4521 4933 c93 -120 282 -309 299 -298 15 9 12 25 -5 25 -8 0 -20 10
-26 23 -7 12 -43 55 -81 96 -37 40 -68 77 -68 82 0 13 -100 89 -117 89 -13 0
-13 -3 -2 -17z"/>
<path d="M2762 4921 c-10 -6 -9 -19 9 -65 11 -32 22 -83 23 -114 2 -76 22 -80
32 -6 9 78 -17 195 -45 194 -3 0 -12 -4 -19 -9z"/>
<path d="M4684 4915 c-17 -42 80 -155 133 -155 21 0 34 -9 51 -35 16 -26 29
-35 49 -35 41 0 102 -71 147 -173 22 -48 36 -90 32 -94 -3 -4 -21 7 -39 24
-36 35 -117 78 -117 63 0 -5 15 -16 33 -24 17 -7 50 -32 72 -55 21 -22 45 -41
53 -41 29 0 4 -25 -29 -28 -65 -7 -138 8 -169 34 -16 14 -34 23 -39 19 -12 -7
-40 36 -97 144 -42 81 -105 156 -126 149 -24 -8 -20 -48 9 -82 15 -19 47 -65
71 -103 23 -37 58 -85 77 -106 29 -31 38 -36 54 -28 14 8 22 6 36 -9 15 -17
66 -32 145 -44 15 -2 10 -4 -14 -5 -45 -1 -116 -20 -131 -34 -10 -9 53 -5 132
9 27 5 31 3 27 -13 -5 -17 -96 -54 -136 -53 -9 0 -27 -13 -40 -29 -23 -26 -27
-27 -58 -17 -43 14 -64 50 -111 186 -29 83 -40 105 -55 105 -30 0 -23 -67 16
-160 38 -90 100 -165 136 -165 12 0 26 -4 29 -10 12 -19 40 -10 66 21 16 20
39 34 65 39 21 5 49 12 62 15 18 6 22 4 22 -15 0 -21 -35 -59 -55 -60 -15 0
-82 -59 -69 -60 19 0 108 52 126 74 l17 21 10 -28 c6 -16 11 -68 11 -117 0
-73 3 -92 20 -111 l19 -24 1 143 0 142 -32 0 -33 1 33 14 32 14 0 110 c0 106
-1 112 -39 193 -51 110 -93 165 -142 187 -23 10 -63 45 -95 82 -48 56 -138
139 -150 139 -3 0 -7 -7 -10 -15z"/>
<path d="M1750 4876 c-44 -30 -77 -73 -115 -150 -25 -51 -35 -62 -60 -66 -36
-6 -40 -24 -7 -28 45 -7 78 16 103 71 13 28 50 76 82 107 41 40 56 62 51 73
-8 22 -13 21 -54 -7z"/>
<path d="M0 4874 c0 -6 13 -23 30 -39 17 -16 30 -24 30 -19 0 6 -13 23 -30 39
-17 16 -30 24 -30 19z"/>
<path d="M692 4758 c-5 -7 -31 -56 -57 -108 -25 -52 -57 -109 -71 -127 -34
-45 -17 -48 43 -7 56 37 96 87 140 171 27 53 28 54 9 69 -24 17 -50 18 -64 2z"/>
<path d="M3101 4709 c-20 -8 -22 -14 -17 -44 l7 -35 -43 -1 c-24 -1 -56 -5
-73 -9 l-30 -8 36 -1 c77 -2 100 -12 116 -49 8 -19 11 -37 8 -40 -9 -10 -25
20 -25 47 0 22 -4 20 -45 -23 -45 -48 -57 -76 -32 -76 7 0 23 7 35 16 35 24
39 8 7 -26 -44 -45 -24 -46 31 0 63 52 76 52 68 1 -4 -23 -2 -41 4 -45 7 -4
13 11 17 39 8 53 23 57 67 20 45 -38 53 -30 19 17 -17 22 -28 45 -24 51 3 5
28 7 55 5 27 -3 51 -1 54 3 5 9 -23 17 -75 21 -20 2 -39 11 -45 21 -9 15 -4
24 32 55 23 20 42 41 42 45 0 10 -39 -10 -67 -35 -12 -11 -31 -18 -44 -16 -19
2 -23 9 -24 38 0 38 -14 46 -54 29z m29 -23 c0 -8 -4 -17 -9 -21 -12 -7 -24
12 -16 25 9 15 25 12 25 -4z m70 -122 c0 -24 -18 -24 -24 0 -3 13 -9 32 -12
43 -4 14 -1 13 15 -6 12 -13 21 -29 21 -37z m-50 -13 c0 -35 -18 -14 -26 29
-5 33 -5 34 10 16 9 -11 16 -31 16 -45z m-100 -30 c0 -12 -42 -42 -49 -36 -5
6 29 45 41 45 4 0 8 -4 8 -9z"/>
<path d="M2637 4682 c-25 -3 -28 -7 -23 -30 2 -15 8 -45 11 -67 4 -22 20 -61
36 -86 16 -25 29 -50 29 -56 0 -6 7 -16 15 -23 23 -19 20 20 -6 80 -12 27 -24
79 -27 117 -7 67 -7 68 -35 65z"/>
<path d="M144 4615 c-85 -42 -144 -90 -144 -116 0 -17 5 -14 29 13 61 70 242
143 257 104 16 -41 -107 -179 -223 -250 l-63 -39 0 -95 c0 -83 2 -93 15 -82
10 8 15 9 15 2 0 -6 -7 -15 -15 -20 -13 -7 -15 -27 -13 -110 3 -85 5 -100 17
-92 12 7 12 11 2 23 -14 17 -10 76 8 122 14 35 7 42 91 -90 67 -106 119 -147
196 -153 43 -4 55 -1 73 17 43 43 21 124 -50 182 l-32 26 32 22 c36 26 65 76
55 94 -4 7 -3 9 1 4 5 -4 17 1 28 10 20 17 20 17 12 -2 -24 -60 -10 -225 18
-208 5 3 16 -2 23 -11 18 -25 51 -5 76 47 l19 42 -6 -43 c-3 -28 -2 -41 4 -37
19 11 23 73 8 131 -8 33 -14 60 -13 61 1 1 15 -20 31 -47 16 -28 36 -50 44
-50 12 0 12 2 0 18 -16 20 -49 77 -49 86 0 3 13 6 29 6 62 0 112 69 86 119
-25 49 -64 54 -119 16 -37 -25 -74 -25 -40 -1 10 8 14 18 9 25 -4 7 2 22 16
37 17 18 19 24 7 24 -8 0 -23 -9 -32 -19 -19 -21 -42 -19 -93 7 -26 13 -35 14
-45 4 -9 -9 -6 -12 14 -12 35 0 39 -9 30 -58 l-7 -42 -42 34 c-82 65 -134 70
-119 12 7 -29 64 -71 122 -91 l38 -13 -33 -16 c-21 -11 -31 -23 -27 -32 3 -8
-13 -34 -37 -62 l-42 -47 -47 30 c-25 17 -51 39 -56 51 -12 24 2 54 24 54 9 0
14 6 11 13 -2 6 -13 11 -23 10 -10 -2 -49 2 -85 8 -57 9 -68 14 -83 40 -18 31
-16 35 14 19 23 -12 130 -2 130 12 0 6 -24 9 -52 8 -29 -2 -68 -2 -87 -1 l-33
1 53 36 c90 60 140 105 185 167 49 65 57 109 25 127 -33 17 -66 11 -137 -25z
m376 -265 c8 -5 11 -10 5 -10 -5 0 -17 5 -25 10 -8 5 -10 10 -5 10 6 0 17 -5
25 -10z m-177 -11 c32 -17 97 -81 91 -91 -13 -20 -144 65 -144 94 0 12 28 10
53 -3z m147 -23 c0 -2 -7 -9 -15 -16 -12 -10 -15 -10 -15 4 0 9 7 16 15 16 8
0 15 -2 15 -4z m202 -22 c18 -38 -6 -74 -64 -96 -39 -14 -48 -15 -58 -3 -9 11
-3 18 30 35 23 12 40 24 37 27 -3 2 -14 0 -25 -6 -25 -13 -52 -14 -52 -2 0 5
12 23 26 40 35 41 89 44 106 5z m-168 -60 c29 -11 16 -25 -21 -22 -42 3 -59
28 -20 28 14 0 32 -3 41 -6z m-392 -49 c28 -4 42 -13 53 -34 8 -16 43 -49 78
-74 82 -59 124 -107 133 -154 6 -32 3 -40 -20 -60 -15 -13 -37 -23 -49 -23
-35 1 -99 34 -135 71 -32 32 -79 109 -67 109 3 0 -13 27 -35 60 -23 34 -40 66
-38 72 2 6 28 -10 56 -36 57 -50 62 -53 62 -33 0 6 -27 34 -60 61 -62 52 -76
72 -37 56 12 -5 39 -11 59 -15z m411 -39 c3 -8 3 -17 0 -20 -10 -10 -67 -7
-83 4 -13 9 -13 11 0 20 23 15 77 12 83 -4z m-25 -83 c-10 -2 -28 -2 -40 0
-13 2 -5 4 17 4 22 1 32 -1 23 -4z"/>
<path d="M1076 4605 c-16 -12 -18 -27 -17 -112 2 -85 6 -106 31 -160 42 -91
67 -84 34 8 -11 32 -13 62 -9 111 7 68 -1 168 -13 168 -4 0 -15 -7 -26 -15z"/>
<path d="M166 4554 c-21 -25 -36 -47 -33 -50 2 -3 22 16 42 41 49 59 42 67 -9
9z"/>
<path d="M221 4540 c-37 -47 -87 -77 -94 -57 -3 7 -6 5 -6 -5 -1 -18 -58 -64
-68 -54 -3 3 2 16 11 28 9 13 24 34 33 48 11 14 13 21 5 16 -15 -9 -102 -139
-102 -152 0 -4 12 3 28 17 15 14 54 42 87 64 66 43 122 91 136 118 16 28 4 20
-30 -23z"/>
<path d="M2424 4523 c-10 -67 14 -211 40 -234 18 -17 36 -25 36 -16 0 2 -6 17
-14 33 -18 36 -21 117 -7 164 6 19 11 50 11 67 0 30 -3 33 -29 33 -28 0 -30
-3 -37 -47z"/>
<path d="M3985 4419 c-11 -17 5 -126 24 -162 11 -22 15 -42 10 -55 -4 -11 -13
-49 -20 -83 -9 -47 -20 -72 -42 -97 -24 -25 -28 -35 -19 -44 15 -15 68 32 87
77 42 99 41 331 -1 362 -22 16 -31 16 -39 2z"/>
<path d="M1431 4353 c5 -21 9 -42 9 -48 0 -6 -33 -10 -79 -10 -64 0 -83 -4
-100 -19 -37 -34 -18 -96 29 -96 18 0 18 -2 3 -28 -10 -17 -13 -36 -10 -47 6
-15 15 -17 53 -11 41 5 45 4 34 -9 -30 -36 1 -21 55 27 l58 52 -5 -57 c-4 -46
-2 -55 9 -46 7 6 13 27 13 45 0 39 9 43 35 14 10 -11 25 -20 34 -20 9 0 1 13
-22 34 -20 18 -37 39 -37 45 0 23 31 23 55 1 13 -12 29 -20 37 -18 8 3 3 11
-15 22 -15 10 -27 24 -27 32 0 18 37 37 61 31 10 -3 19 -1 19 3 0 5 -15 10
-32 12 -25 2 -34 8 -36 26 -4 24 -22 31 -22 8 0 -9 -7 -12 -20 -9 -21 6 -24
12 -14 37 3 9 10 13 15 10 5 -3 9 2 9 11 0 25 -38 0 -46 -30 -10 -41 -31 -29
-45 25 -15 58 -31 69 -18 13z m-33 -72 c9 -5 24 -12 33 -14 9 -3 19 -16 21
-29 3 -13 9 -32 14 -43 7 -18 6 -18 -9 -6 -9 7 -17 26 -17 42 0 16 -2 29 -5
29 -2 0 -26 -13 -53 -29 -71 -41 -90 -46 -113 -25 -24 21 -24 36 -1 57 26 24
100 34 130 18z m106 -70 c-6 -6 -24 19 -24 34 1 6 7 1 15 -9 8 -11 12 -22 9
-25z m-75 -46 c0 -5 -6 -1 -14 9 -8 11 -15 27 -15 35 1 17 29 -26 29 -44z
m-38 3 c11 -21 11 -22 -4 -9 -10 7 -17 17 -17 22 0 15 9 10 21 -13z m-5 -46
c11 -6 13 -11 5 -16 -6 -4 -11 -2 -11 4 0 8 -6 8 -21 0 -15 -9 -24 -8 -35 1
-8 6 -12 14 -9 17 2 3 11 -1 20 -8 16 -13 19 -8 16 35 -1 19 0 18 8 -2 6 -12
17 -26 27 -31z"/>
<path d="M1348 4254 c-39 -21 -35 -28 5 -8 37 19 44 24 31 24 -5 -1 -21 -8
-36 -16z"/>
<path d="M4830 4361 c0 -5 5 -13 10 -16 6 -3 10 -2 10 4 0 5 -4 13 -10 16 -5
3 -10 2 -10 -4z"/>
<path d="M2997 4274 c-3 -3 5 -29 17 -58 25 -54 57 -176 47 -176 -4 0 -17 7
-29 16 -15 11 -22 25 -22 50 0 19 -4 34 -10 34 -13 0 -13 -83 0 -96 17 -17 1
-51 -23 -48 -12 1 -29 3 -38 3 -12 1 -22 21 -34 71 -18 75 -40 102 -116 140
-40 21 -84 27 -74 10 3 -5 15 -10 26 -10 11 0 22 -6 25 -14 3 -7 22 -21 43
-31 35 -15 39 -22 45 -63 3 -26 13 -60 21 -76 20 -37 14 -42 -27 -21 -237 122
-318 149 -439 143 -65 -3 -81 -7 -103 -27 -33 -31 -33 -47 4 -81 83 -77 252
-115 325 -71 27 15 54 21 103 22 48 0 61 3 46 9 -20 8 -42 30 -30 30 16 0 74
-35 70 -42 -3 -4 4 -8 15 -8 11 0 22 -4 25 -9 10 -15 -45 -29 -134 -35 -62 -4
-98 -13 -137 -31 -78 -39 -122 -100 -94 -130 5 -6 12 -20 16 -33 5 -19 2 -24
-25 -33 -17 -6 -29 -16 -27 -23 10 -30 179 -14 340 33 54 16 95 25 90 21 -4
-4 -64 -28 -133 -53 -102 -38 -142 -47 -220 -52 -98 -7 -165 -30 -219 -75 -40
-34 -16 -34 54 1 50 24 86 34 148 40 121 11 190 25 236 49 23 11 41 16 41 10
0 -5 -29 -42 -65 -81 -59 -64 -76 -89 -59 -89 3 0 30 21 61 47 63 54 103 120
81 134 -10 7 -8 9 7 9 11 0 35 9 53 20 l32 20 0 -27 c0 -15 10 -46 21 -71 l21
-43 -27 -52 c-15 -29 -34 -59 -41 -68 -16 -18 -18 -39 -4 -39 13 0 99 117 106
144 2 11 -7 49 -21 83 -28 69 -30 83 -14 83 21 0 69 -42 69 -61 0 -25 60 -159
71 -159 13 0 12 3 -18 102 -21 71 -32 92 -52 103 -20 11 -22 14 -8 15 10 0 31
7 47 15 l29 15 12 -40 c12 -38 29 -55 29 -27 0 20 -27 103 -46 138 l-17 34 21
-19 c20 -18 23 -18 47 -2 22 15 25 15 25 1 0 -9 5 -13 11 -9 6 3 8 15 6 25 -4
16 8 12 71 -23 72 -40 82 -43 148 -42 82 1 172 37 236 93 66 58 53 97 -43 125
-72 22 -237 21 -287 0 -62 -27 -88 -32 -105 -22 -10 5 -17 15 -17 22 0 18 75
85 114 101 26 11 28 15 13 20 -19 8 -76 -27 -117 -70 -28 -30 -72 -33 -99 -6
-11 11 -24 45 -31 76 -10 49 -46 145 -54 145 -1 0 -5 -3 -9 -6z m-487 -153
c14 -4 24 -14 22 -21 -2 -10 0 -11 11 -2 11 9 24 9 58 -2 66 -20 99 -38 92
-49 -3 -6 -1 -7 6 -3 12 8 56 -3 47 -11 -3 -4 -1 -12 5 -20 9 -10 3 -13 -33
-13 -24 0 -52 6 -63 14 -32 22 -94 36 -118 26 -17 -7 -12 -9 26 -9 26 -1 47
-5 47 -11 0 -5 9 -10 19 -10 11 0 22 -4 25 -9 8 -12 -55 -41 -89 -41 -24 0
-26 2 -14 17 13 15 12 15 -8 5 -24 -13 -68 -15 -98 -3 -18 7 -17 9 10 25 17
10 21 14 10 10 -45 -15 -64 -15 -96 2 -31 15 -32 18 -14 25 16 6 14 8 -12 8
-43 1 -56 36 -23 63 17 14 39 18 94 17 39 -1 82 -4 96 -8z m552 -107 c-24 -17
-39 -14 -27 5 3 6 16 11 28 11 l21 0 -22 -16z m98 -14 c0 -11 -2 -20 -3 -20
-2 0 -12 9 -22 20 -18 19 -17 20 3 20 15 0 22 -6 22 -20z m237 9 c-28 -17
-150 -56 -197 -64 -33 -6 -41 -4 -38 6 3 8 17 13 34 12 16 -2 45 5 64 14 61
29 180 57 137 32z m221 -24 c23 -10 42 -24 42 -32 0 -8 -14 -28 -32 -45 -34
-32 -127 -83 -135 -74 -3 3 -12 -2 -21 -10 -12 -12 -32 -15 -86 -12 -65 3 -78
7 -148 52 -43 27 -78 53 -78 56 0 4 26 13 59 19 32 6 96 25 142 41 69 25 95
29 149 26 37 -3 85 -12 108 -21z m-555 -138 c-5 -63 -9 -77 -22 -77 -7 0 -7 8
0 24 10 22 1 79 -25 151 -5 13 2 9 22 -13 26 -29 29 -38 25 -85z m-143 51 c20
-45 27 -123 11 -132 -5 -4 -14 17 -20 44 -6 28 -18 64 -26 80 -19 37 -19 50 0
50 9 0 25 -19 35 -42z m-105 -62 c17 -58 19 -96 5 -96 -5 0 -10 13 -10 28 0
16 -9 55 -20 87 -11 32 -20 61 -20 64 1 18 33 -41 45 -83z m-87 41 c20 -42 36
-132 27 -153 -6 -14 -10 -5 -16 39 -5 32 -17 78 -28 103 -22 49 -6 59 17 11z
m-98 -13 c19 -50 30 -115 24 -139 -9 -36 -24 -31 -24 8 -1 17 -9 55 -18 83
-10 28 -16 56 -14 63 6 19 22 12 32 -15z m-77 -51 c16 -32 30 -83 22 -83 -5 0
-55 95 -55 105 0 15 21 1 33 -22z"/>
<path d="M2433 4104 c4 -4 24 -15 45 -24 31 -14 39 -15 39 -4 0 8 -2 12 -5 10
-2 -3 -22 2 -45 10 -22 8 -38 11 -34 8z"/>
<path d="M2350 4096 c0 -2 13 -6 29 -8 17 -2 28 -1 25 4 -5 8 -54 12 -54 4z"/>
<path d="M2400 4060 c-9 -6 -10 -10 -3 -10 6 0 15 5 18 10 8 12 4 12 -15 0z"/>
<path d="M3558 3953 c7 -3 16 -2 19 1 4 3 -2 6 -13 5 -11 0 -14 -3 -6 -6z"/>
<path d="M3473 3939 c-6 -6 -30 -10 -52 -7 -22 2 -42 -1 -44 -6 -4 -11 -101
-14 -142 -3 -16 4 -5 -2 25 -13 47 -18 59 -19 79 -8 15 8 60 13 115 13 50 -1
79 1 64 3 -34 4 -37 19 -5 25 20 4 20 4 -3 6 -15 0 -31 -4 -37 -10z"/>
<path d="M3565 3900 c27 -12 43 -12 25 0 -8 5 -22 9 -30 9 -10 0 -8 -3 5 -9z"/>
<path d="M3348 3883 c7 -3 16 -2 19 1 4 3 -2 6 -13 5 -11 0 -14 -3 -6 -6z"/>
<path d="M3388 3873 c7 -3 16 -2 19 1 4 3 -2 6 -13 5 -11 0 -14 -3 -6 -6z"/>
<path d="M3421 3866 c2 -2 15 -9 29 -15 24 -11 24 -11 6 3 -16 13 -49 24 -35
12z"/>
<path d="M5007 4088 c-26 -35 -47 -68 -47 -75 0 -6 -9 -15 -21 -18 -20 -7 -49
-59 -49 -87 1 -17 40 30 40 47 0 7 13 18 30 25 33 14 85 86 95 131 4 17 5 32
3 35 -3 2 -26 -24 -51 -58z"/>
<path d="M911 4015 c-2 -5 -2 -23 -2 -40 1 -16 -5 -39 -13 -50 -14 -19 -15
-18 -24 15 -6 19 -11 27 -11 18 -1 -10 -7 -18 -15 -18 -7 0 -19 -7 -26 -15
-11 -13 -10 -15 6 -9 16 5 15 2 -5 -15 -13 -12 -32 -21 -42 -21 -10 0 -19 -7
-19 -15 0 -8 5 -15 10 -15 24 0 7 -20 -17 -21 -16 0 -46 -6 -68 -14 -31 -10
-35 -13 -15 -13 14 -1 47 3 73 7 l49 8 -29 -23 c-29 -24 -26 -31 6 -14 16 8
20 2 32 -48 8 -35 23 -67 39 -84 20 -19 26 -34 23 -55 -2 -15 2 -37 11 -48
l15 -20 -2 20 c-1 11 -6 23 -11 26 -4 4 -5 16 -1 28 6 21 7 21 20 4 7 -10 11
-22 7 -27 -3 -5 2 -7 11 -3 20 8 23 -13 5 -32 -11 -11 -10 -13 1 -9 29 8 34
55 13 101 -20 40 -35 160 -20 151 4 -3 22 -26 40 -51 17 -26 33 -42 36 -35 2
6 -17 39 -43 73 l-47 62 52 -7 c45 -6 59 -3 104 20 64 33 86 52 86 75 0 38
-79 33 -189 -11 -49 -19 -63 -16 -40 7 5 5 8 32 6 59 -2 27 -5 45 -6 39z m217
-97 c-3 -7 -25 -26 -50 -41 -43 -27 -50 -28 -119 -21 l-74 7 45 20 c103 45
207 63 198 35z m-233 -184 c3 -32 2 -50 -1 -39 -3 11 -11 39 -19 62 -7 23 -11
44 -7 47 13 13 23 -14 27 -70z m-34 20 c10 -29 9 -104 -2 -104 -13 0 -27 26
-42 78 l-16 52 25 0 c17 0 27 -8 35 -26z m68 -151 c1 -18 -18 -16 -25 2 -4 8
-3 23 1 33 7 16 8 15 15 -3 5 -11 9 -26 9 -32z"/>
<path d="M750 3948 c1 -19 37 -64 46 -56 3 4 -5 21 -20 38 -14 17 -26 26 -26
18z"/>
<path d="M4580 3878 l0 -82 -29 34 c-31 38 -51 35 -33 -4 19 -42 -6 -52 -83
-32 -46 11 -71 13 -83 7 -15 -9 -14 -10 7 -11 14 0 51 -7 84 -17 l59 -16 23
29 c13 16 27 25 32 21 4 -5 -4 -18 -20 -29 -30 -22 -35 -49 -12 -68 8 -7 13
-16 10 -20 -8 -13 -89 -48 -120 -51 -28 -4 -30 -2 -27 26 2 20 -5 41 -19 59
-20 25 -26 27 -62 22 -53 -9 -94 -31 -142 -77 l-40 -38 -1 49 c-2 57 -29 143
-50 161 -34 28 -78 -54 -114 -215 -17 -74 -25 -95 -32 -83 -5 10 -13 17 -19
17 -5 0 -4 -8 2 -18 9 -14 9 -27 1 -48 -8 -24 -11 -25 -11 -8 -1 31 -27 50
-46 34 -12 -10 -17 -5 -29 24 -15 36 -45 53 -31 19 4 -10 9 -33 12 -52 5 -29
4 -33 -13 -28 -10 3 -46 8 -79 12 -33 4 -70 9 -82 12 -13 3 -23 1 -23 -5 0
-12 77 -32 124 -32 19 0 41 -3 50 -6 25 -10 19 -43 -9 -54 -39 -15 -29 -23 20
-17 25 4 45 3 45 -2 0 -11 -32 -40 -45 -40 -5 0 -11 -5 -14 -12 -2 -8 2 -10
14 -5 14 5 16 3 10 -11 -4 -10 -10 -27 -13 -38 -5 -18 -4 -18 11 -6 14 11 22
11 48 0 28 -11 33 -10 45 6 8 10 14 28 15 39 0 12 9 -4 20 -34 19 -54 34 -78
43 -69 3 3 -6 35 -19 72 -37 101 -31 112 31 51 25 -26 39 -33 47 -25 7 7 6 12
-6 17 -9 3 -24 18 -33 32 l-17 27 28 -19 c28 -19 135 -31 135 -15 0 20 -35 39
-71 39 -22 0 -50 5 -62 12 -19 11 -10 14 74 24 121 14 189 45 265 118 32 31
74 61 93 67 20 6 51 20 69 30 l32 18 -16 -32 c-9 -17 -28 -42 -43 -55 -25 -23
-25 -23 -3 -19 24 6 28 -6 13 -45 -16 -44 -21 -78 -12 -78 5 0 24 47 42 104
18 58 36 103 40 100 4 -2 10 -30 14 -62 13 -125 63 -231 130 -272 49 -30 58
-19 52 55 -5 70 -39 152 -92 226 -44 62 -24 64 35 4 24 -25 51 -45 59 -45 9 0
1 12 -19 29 l-35 29 64 -14 c69 -14 107 -7 118 22 4 12 -3 25 -21 41 -23 19
-38 23 -96 23 -38 0 -81 -4 -97 -10 -25 -9 -23 -5 17 31 34 31 40 40 24 38
-12 -2 -28 2 -37 9 -13 11 -22 10 -56 -7 -22 -12 -44 -21 -48 -21 -13 1 38 40
52 40 7 0 33 20 57 45 25 25 40 45 32 45 -7 0 -26 -13 -42 -30 -55 -55 -70
-40 -74 73 -4 95 -18 83 -18 -15z m-487 -104 c14 -40 16 -68 11 -158 -7 -122
-14 -150 -41 -160 -29 -12 -166 -20 -162 -10 2 5 16 32 31 60 22 42 53 142 73
237 7 31 47 88 59 84 6 -2 19 -26 29 -53z m247 -52 c0 -16 -50 -75 -100 -118
-28 -24 -48 -44 -44 -44 15 0 118 96 137 127 22 38 37 35 37 -7 0 -21 -11 -38
-41 -64 -38 -32 -206 -123 -213 -115 -1 2 2 27 6 55 7 37 20 64 44 93 32 37
66 58 48 29 -4 -7 -3 -8 5 -4 6 4 9 11 6 16 -6 10 61 39 93 39 12 1 22 -3 22
-7z m518 -78 c18 -13 21 -19 11 -30 -22 -26 -155 -6 -186 28 -15 17 -13 18 68
18 61 0 91 -4 107 -16z m-523 -81 c-58 -53 -156 -103 -202 -103 -49 0 -32 23
40 54 34 14 91 46 127 69 84 56 105 44 35 -20z m352 -75 c9 -10 20 -15 25 -12
4 3 8 2 7 -3 -1 -4 3 -21 10 -38 18 -44 26 -125 13 -125 -22 0 -84 64 -109
114 -19 36 -27 71 -30 121 l-4 70 37 -55 c20 -30 43 -63 51 -72z m8 27 l17
-30 -25 30 c-14 17 -33 44 -42 60 l-17 30 25 -30 c14 -16 33 -43 42 -60z
m-839 -82 c-7 -7 -26 7 -26 19 0 6 6 6 15 -2 9 -7 13 -15 11 -17z m36 -55
c-15 -15 -26 -4 -18 18 5 13 9 15 18 6 9 -9 9 -15 0 -24z"/>
<path d="M4022 3700 c0 -14 2 -19 5 -12 2 6 2 18 0 25 -3 6 -5 1 -5 -13z"/>
<path d="M4062 3679 c-7 -11 -17 -17 -21 -14 -5 2 -12 -7 -16 -23 -3 -15 -20
-57 -36 -94 -32 -74 -33 -78 -19 -78 5 0 9 3 9 8 -4 21 3 40 19 58 9 10 17 25
18 32 2 25 5 29 27 41 12 6 14 9 5 7 -24 -7 -23 5 3 38 17 21 24 25 30 14 5
-7 9 -8 9 -3 0 6 -4 15 -8 22 -6 9 -11 7 -20 -8z"/>
<path d="M4052 3560 c-12 -10 -19 -21 -15 -23 5 -3 16 6 26 19 21 29 19 30
-11 4z"/>
<path d="M4015 3499 c-34 -21 -29 -25 10 -7 14 6 25 15 25 20 0 10 1 10 -35
-13z"/>
<path d="M4170 3625 c-18 -19 -32 -36 -29 -38 2 -2 19 14 38 35 42 48 36 50
-9 3z"/>
<path d="M4621 3474 c0 -11 3 -14 6 -6 3 7 2 16 -1 19 -3 4 -6 -2 -5 -13z"/>
<path d="M1140 3775 c-7 -13 -17 -22 -22 -19 -4 3 -8 -5 -8 -18 -1 -23 -1 -23
-21 5 -11 15 -25 27 -30 27 -6 0 1 -15 15 -33 33 -43 33 -48 -6 -40 -22 4 -29
3 -24 -5 4 -7 15 -12 24 -12 37 0 45 -15 28 -48 -21 -41 -20 -52 3 -25 19 23
36 19 44 -12 4 -18 5 -18 6 3 1 24 31 32 31 8 0 -8 5 -18 11 -21 7 -5 8 5 3
30 l-7 37 32 -16 c40 -21 40 -12 0 22 l-32 26 34 10 34 10 -30 4 c-38 5 -53
18 -37 34 18 18 14 28 -10 25 -17 -1 -22 3 -20 16 4 24 -2 21 -18 -8z"/>
<path d="M0 3735 c0 -4 23 -27 50 -52 55 -49 93 -107 108 -165 l10 -36 -69 24
c-72 25 -99 29 -99 15 0 -4 28 -16 62 -25 35 -10 79 -26 98 -37 l35 -20 -82 6
c-45 3 -90 8 -99 12 -11 4 -15 2 -11 -4 4 -6 35 -14 69 -18 35 -3 72 -9 83
-13 17 -5 16 -7 -10 -13 -16 -4 -56 -7 -87 -8 -51 -1 -58 -3 -58 -21 0 -16 7
-20 33 -20 17 0 47 4 66 10 33 9 33 9 16 -10 -10 -11 -39 -26 -66 -35 -44 -15
-49 -20 -49 -47 l0 -30 27 17 c14 10 41 26 60 37 33 20 33 20 33 0 0 -27 -40
-67 -83 -83 -21 -7 -37 -17 -37 -21 0 -14 58 -8 74 8 15 14 18 14 42 -5 37
-29 85 -27 123 5 l31 26 -6 -53 c-6 -58 12 -129 36 -137 10 -4 11 0 4 14 -11
23 -12 162 0 189 6 17 13 8 36 -50 17 -42 25 -74 19 -79 -14 -16 -11 -40 15
-98 26 -58 68 -100 91 -92 7 3 18 -4 25 -15 13 -26 72 -56 126 -65 53 -9 74
10 74 65 0 103 -72 222 -215 356 l-96 91 43 5 c182 26 204 23 348 -44 l85 -40
0 -42 c0 -28 8 -53 23 -75 23 -32 82 -71 82 -54 0 5 -12 14 -26 21 -15 6 -24
14 -21 17 3 3 -6 16 -19 29 -28 28 -41 72 -26 87 8 8 30 -8 79 -56 l68 -66
-45 5 -45 5 43 -12 c42 -13 56 -36 18 -29 -13 2 -17 -2 -13 -11 3 -8 -4 -20
-15 -27 -11 -7 -17 -15 -14 -18 3 -3 12 0 21 7 8 7 27 14 40 16 25 2 26 0 29
-55 2 -35 26 -39 26 -4 l1 28 17 -24 c62 -87 115 -113 145 -71 12 18 21 20 58
14 24 -4 41 -3 37 1 -4 4 -23 9 -41 11 -22 2 -45 14 -66 34 -17 18 -37 30 -45
27 -7 -3 -20 8 -30 24 -17 28 -17 29 4 29 36 0 89 -30 120 -69 33 -39 42 -29
10 12 -30 38 -79 64 -133 72 -46 7 -47 8 -31 26 19 21 6 26 -15 7 -11 -11 -13
-9 -8 10 5 23 -2 29 -19 12 -6 -6 -34 18 -81 68 -123 135 -223 174 -437 170
-133 -3 -137 -2 -132 17 3 11 6 23 6 26 0 4 19 5 43 2 23 -2 62 0 87 5 l45 8
-68 12 c-45 9 -73 9 -86 3 -17 -9 -18 -6 -16 36 1 38 5 48 25 55 12 5 37 21
54 36 17 15 48 36 69 47 20 11 37 24 37 28 0 13 -23 3 -87 -40 -31 -21 -76
-48 -101 -61 -53 -28 -72 -18 -72 38 0 25 -10 50 -31 79 -38 53 -51 47 -15 -6
32 -47 36 -94 6 -86 -14 4 -20 0 -20 -11 0 -9 8 -16 21 -16 26 0 17 -16 -13
-23 -13 -2 -30 -7 -38 -11 -11 -4 -16 0 -17 13 -3 36 -63 114 -63 81 0 -19 34
-120 41 -120 4 0 5 -9 2 -20 -10 -36 -31 -21 -47 33 -17 59 -79 151 -122 183
-41 29 -54 36 -54 29z m420 -209 c0 -3 -4 -8 -10 -11 -5 -3 -10 -1 -10 4 0 6
5 11 10 11 6 0 10 -2 10 -4z m-109 -88 c23 -18 44 -39 47 -45 7 -24 -28 -25
-70 -1 -32 17 -44 30 -46 51 -4 37 16 35 69 -5z m402 -63 c115 -30 213 -92
279 -178 31 -42 31 -42 -23 9 -59 56 -155 113 -264 155 -79 31 -76 36 8 14z
m-523 -19 c6 -8 31 -23 56 -32 52 -20 56 -37 13 -59 -61 -32 -132 20 -109 80
11 28 22 31 40 11z m207 -110 c30 -43 57 -92 60 -108 4 -18 9 -25 13 -18 7 12
27 -31 50 -110 10 -34 10 -34 4 10 -3 25 -23 78 -45 118 -44 83 -47 92 -21 68
33 -29 106 -197 113 -256 l6 -55 2 52 c1 42 -7 69 -42 145 -44 93 -128 210
-149 205 -6 -1 -12 6 -13 16 -2 11 20 -4 62 -40 97 -85 160 -160 195 -231 34
-68 49 -164 29 -177 -17 -10 -107 14 -136 37 -14 11 -25 28 -25 38 0 13 -5 17
-14 14 -21 -8 -58 61 -115 219 -28 76 -51 143 -51 149 0 23 28 -4 77 -76z m42
-21 c-3 -2 -16 10 -29 28 l-23 32 29 -27 c15 -15 26 -30 23 -33z m683 -172
c10 -9 18 -22 18 -30 0 -16 17 -17 22 -2 6 18 45 -6 53 -31 7 -24 -10 -50 -32
-50 -8 0 -31 16 -50 35 -25 25 -33 40 -28 55 4 11 2 20 -4 20 -6 0 -11 5 -11
10 0 15 11 12 32 -7z"/>
<path d="M556 3120 c6 -8 16 -24 22 -35 6 -11 12 -15 12 -8 0 7 -10 22 -22 35
-13 13 -18 17 -12 8z"/>
<path d="M472 3080 c0 -14 2 -19 5 -12 2 6 2 18 0 25 -3 6 -5 1 -5 -13z"/>
<path d="M482 3020 c0 -19 2 -27 5 -17 2 9 2 25 0 35 -3 9 -5 1 -5 -18z"/>
<path d="M612 2975 c0 -11 4 -33 8 -50 7 -27 8 -27 8 -5 0 14 -4 36 -8 50 -6
20 -8 21 -8 5z"/>
<path d="M1583 3724 c-23 -10 -14 -40 27 -91 53 -68 80 -77 192 -70 l91 6 -27
-28 c-35 -36 -33 -47 3 -22 40 29 42 27 26 -20 -13 -36 -13 -44 0 -67 l14 -27
-5 31 c-4 19 0 43 9 60 l15 29 13 -27 c6 -15 16 -25 22 -21 6 3 7 1 3 -5 -4
-6 2 -28 13 -49 20 -39 30 -30 11 10 -11 22 -11 22 5 2 9 -11 50 -69 91 -129
41 -60 74 -106 74 -101 0 5 -27 48 -60 97 -33 48 -60 91 -60 95 0 4 15 -6 33
-22 17 -17 7 -3 -24 30 -83 90 -91 104 -38 68 69 -48 160 -151 213 -242 25
-44 50 -81 55 -81 4 0 8 -15 9 -34 1 -18 8 -53 16 -77 8 -24 13 -45 11 -47
-10 -10 -199 104 -227 138 -65 74 -271 199 -468 281 -92 39 -100 44 -72 47 42
4 31 22 -14 22 -36 0 -42 8 -22 28 16 16 2 28 -16 13 -11 -9 -15 -8 -20 4 -3
8 -17 15 -30 15 -23 0 -24 2 -15 30 6 16 9 35 6 42 -3 7 -8 -2 -12 -19 -4 -18
-11 -33 -16 -33 -5 0 -9 -13 -9 -30 0 -24 -5 -30 -22 -32 -34 -2 -41 -1 -63 8
-19 7 -19 6 -3 -12 16 -19 15 -20 -25 -42 -44 -23 -72 -56 -62 -72 16 -25 102
-2 149 39 11 10 4 -11 -20 -58 -48 -90 -52 -146 -15 -185 14 -14 32 -26 41
-26 25 0 60 38 60 66 l0 25 68 -37 c37 -21 68 -38 69 -39 2 -1 -5 -20 -14 -43
-15 -39 -15 -47 0 -108 31 -123 158 -289 260 -338 76 -37 133 -40 282 -17 71
11 131 18 133 16 2 -2 -34 -12 -80 -22 -71 -16 -83 -22 -86 -41 -2 -13 3 -25
13 -28 23 -9 99 23 145 61 30 25 53 34 95 40 31 3 59 4 62 1 15 -15 -12 -37
-64 -52 -200 -56 -352 -229 -429 -489 -23 -76 -27 -110 -28 -220 -2 -200 29
-284 97 -270 93 19 288 134 419 249 75 66 236 242 252 277 13 27 20 24 38 -14
15 -32 15 -36 -13 -101 -40 -94 -47 -143 -23 -161 13 -9 23 -10 31 -3 22 18
52 115 58 190 7 70 6 75 -25 121 l-33 48 18 42 c9 23 21 52 26 65 5 12 15 22
24 22 13 0 15 -26 15 -182 -1 -117 -6 -201 -14 -233 -19 -72 -2 -145 37 -158
16 -5 31 -7 33 -4 3 3 -3 43 -13 89 -22 101 -27 488 -6 495 19 7 30 -25 67
-196 34 -160 46 -191 72 -191 30 0 46 32 39 79 -17 123 -86 304 -120 317 -13
5 -13 9 0 27 8 12 15 32 15 46 0 23 1 23 18 8 24 -22 131 -35 142 -17 6 9 12
4 24 -18 9 -17 26 -38 38 -46 29 -21 78 -21 78 -1 0 8 -3 15 -8 15 -4 0 -31
21 -60 46 -28 25 -52 43 -52 41 0 -3 -34 6 -76 19 -41 13 -80 22 -85 19 -13
-9 -11 8 6 41 29 59 -29 167 -126 236 -92 66 -164 62 -258 -12 -34 -27 -54
-53 -66 -85 -17 -43 -17 -47 0 -86 10 -22 33 -53 51 -69 52 -45 157 -100 217
-112 48 -10 59 -9 96 9 22 11 41 18 41 14 0 -19 -35 -51 -67 -62 -54 -18 -164
-14 -204 6 -53 27 -158 105 -169 124 -5 11 -4 45 2 89 7 40 9 74 7 77 -6 5
-245 -20 -338 -36 -91 -16 -189 -7 -242 22 -24 13 -43 29 -43 34 1 6 17 18 36
28 33 16 55 17 284 9 137 -5 253 -6 257 -2 8 7 -228 20 -382 20 l-86 1 24 20
c13 10 43 24 66 30 30 8 46 18 54 36 13 28 14 28 107 -11 33 -14 110 -35 170
-47 l109 -22 69 35 68 34 -84 41 -84 40 -22 88 c-24 97 -45 137 -69 133 -12
-2 -30 19 -58 64 -74 122 -145 199 -254 275 -3 2 4 9 14 17 12 8 16 19 12 31
-6 15 -9 15 -27 -6 l-20 -24 17 31 c22 41 12 64 -30 64 -26 0 -36 6 -50 30
-10 17 -22 30 -28 30 -5 0 -2 -11 7 -25 8 -13 14 -31 12 -40 -2 -13 -13 -9
-58 19 -30 19 -75 47 -99 62 -43 27 -128 42 -158 28z m125 -31 c87 -48 162
-95 162 -103 0 -4 -36 -10 -80 -14 -96 -8 -113 -1 -170 68 -43 52 -47 62 -27
69 29 12 67 5 115 -20z m-233 -193 c3 -5 -1 -10 -9 -10 -8 0 -18 5 -21 10 -3
6 1 10 9 10 8 0 18 -4 21 -10z m-111 -53 c-11 -29 -124 -84 -124 -60 0 15 43
51 80 67 37 15 52 13 44 -7z m216 -38 c159 -61 440 -220 499 -283 23 -24 20
-24 -55 9 -102 45 -249 79 -312 73 -27 -3 -63 -12 -82 -21 -33 -17 -33 -17
-106 24 -82 45 -89 53 -99 122 -8 54 -2 60 20 16 13 -25 19 -28 31 -18 8 6 14
18 14 25 0 19 10 18 26 -3 22 -29 17 7 -6 45 -21 35 -33 43 -23 15 6 -16 5
-16 -11 -4 -13 11 -14 16 -4 22 18 12 18 12 108 -22z m-168 -141 c-2 -5 -11
-8 -20 -8 -10 0 -28 -7 -40 -16 -13 -9 -26 -14 -29 -11 -8 8 17 77 46 127 l25
44 11 -64 c6 -36 9 -68 7 -72z m18 -48 c0 -56 -74 -76 -94 -25 -7 20 9 36 49
51 38 14 45 10 45 -26z m397 -47 c7 -3 13 -13 13 -23 0 -18 62 -78 111 -107
21 -13 83 -92 97 -125 13 -29 -107 20 -243 101 -38 22 -105 53 -148 67 l-79
26 30 30 c16 17 45 34 63 38 32 8 127 4 156 -7z m131 -41 l73 -28 -31 -22
c-17 -13 -28 -28 -24 -34 12 -19 -38 14 -82 54 -72 66 -53 75 64 30z m-233
-86 c39 -18 96 -49 129 -69 53 -32 57 -36 38 -46 -29 -16 -62 -14 -184 11
l-108 21 -10 36 c-5 20 -10 49 -10 65 0 27 1 28 38 21 20 -4 69 -21 107 -39z
m468 -29 c62 -33 158 -82 215 -110 57 -27 101 -51 99 -53 -7 -7 -140 42 -241
90 -104 49 -126 54 -126 33 0 -35 128 -107 242 -136 113 -29 51 -34 -75 -7
-183 40 -222 59 -276 136 -47 66 -50 83 -19 104 29 21 49 14 181 -57z m80 -87
c57 -28 129 -59 158 -69 l54 -20 -38 0 c-72 -2 -266 80 -288 121 -14 27 -3 23
114 -32z m-548 -5 c72 -18 145 -19 179 -4 19 9 35 8 75 -7 28 -10 51 -20 51
-23 -1 -17 -20 -30 -67 -45 -28 -9 -57 -23 -63 -31 -6 -8 -28 -19 -48 -26 -20
-6 -47 -18 -60 -25 -28 -18 -48 -9 -94 48 -38 46 -78 108 -78 121 0 11 38 8
105 -8z m915 -197 c4 -64 9 -81 30 -103 54 -58 117 -70 179 -33 l36 21 -29
-31 c-53 -57 -98 -50 -195 29 -30 24 -74 59 -98 77 -50 37 -54 62 -18 98 19
19 34 24 58 22 l32 -3 5 -77z m-275 -125 c-4 -10 -9 -25 -12 -34 -3 -11 41
-49 146 -127 125 -92 151 -116 151 -136 0 -23 -6 -19 -67 40 -114 111 -259
204 -320 204 -16 0 -40 -7 -53 -16 l-25 -17 20 21 c26 27 125 82 149 82 13 0
16 -5 11 -17z m-132 -125 c67 -36 181 -137 210 -187 30 -51 -3 -39 -147 54
-46 29 -107 66 -135 81 l-52 27 27 28 c15 16 30 29 32 29 2 0 32 -15 65 -32z
m-47 -103 c98 -51 334 -258 334 -294 0 -8 -26 12 -61 47 -59 60 -136 116 -244
177 l-50 29 19 -30 c32 -48 77 -104 154 -189 103 -112 106 -125 14 -61 -43 30
-117 74 -165 97 -70 33 -87 46 -92 68 -3 14 -23 50 -45 79 l-40 53 22 29 c30
41 69 39 154 -5z m494 -5 c0 -5 -7 -7 -15 -4 -8 4 -15 8 -15 10 0 2 7 4 15 4
8 0 15 -4 15 -10z m-56 -108 c3 -15 2 -40 -3 -57 -9 -30 -9 -30 -10 10 -1 22
-4 51 -8 64 -4 16 -3 22 5 17 6 -3 13 -19 16 -34z m-537 -66 c17 -23 75 -81
129 -128 54 -47 113 -101 129 -119 35 -38 26 -33 -70 43 -79 64 -219 154 -283
182 -46 21 -50 32 -27 77 l16 30 38 -22 c22 -12 52 -40 68 -63z m-50 -215
c103 -69 222 -171 200 -171 -4 0 -31 18 -60 39 -29 21 -104 65 -167 96 -63 32
-116 58 -118 60 -6 6 11 55 19 55 4 0 61 -36 126 -79z m-36 -114 c31 -23 65
-47 75 -54 16 -10 11 -12 -32 -12 -79 -1 -139 49 -158 133 l-7 28 33 -27 c18
-15 58 -45 89 -68z"/>
<path d="M1718 3648 c8 -10 24 -21 35 -25 20 -6 20 -7 -8 -14 -28 -6 -27 -7
11 -8 23 0 57 -3 75 -6 23 -4 13 2 -28 18 -35 14 -71 31 -80 38 -16 13 -17 12
-5 -3z"/>
<path d="M1678 3613 c6 -2 18 -2 25 0 6 3 1 5 -13 5 -14 0 -19 -2 -12 -5z"/>
<path d="M960 3630 c-6 -12 -9 -24 -7 -27 3 -2 11 5 17 17 6 12 9 24 7 27 -3
2 -11 -5 -17 -17z"/>
<path d="M2564 3549 c-32 -29 -61 -56 -63 -61 -2 -6 23 4 55 21 33 17 71 31
85 31 15 0 32 6 38 14 10 11 7 17 -11 30 -12 9 -27 16 -34 16 -6 0 -37 -23
-70 -51z"/>
<path d="M4934 3526 c-10 -8 -16 -18 -11 -22 4 -4 13 -2 19 4 14 14 82 17 74
3 -8 -12 45 -83 78 -104 38 -26 32 -10 -19 44 -25 26 -45 53 -45 59 0 8 15 9
45 4 28 -4 45 -2 45 4 0 25 -153 31 -186 8z"/>
<path d="M25 3485 c17 -8 37 -14 45 -14 8 0 -1 7 -20 14 -46 18 -64 17 -25 0z"/>
<path d="M1920 3462 c0 -7 6 -25 14 -40 16 -31 56 -70 56 -55 0 6 -7 14 -15
17 -9 3 -25 25 -35 48 -11 24 -20 37 -20 30z"/>
<path d="M1990 3306 c31 -34 65 -74 78 -91 12 -16 22 -25 22 -18 0 6 -35 47
-77 91 -44 44 -54 52 -23 18z"/>
<path d="M2316 3341 c-3 -4 5 -13 18 -19 15 -7 31 -31 46 -73 15 -40 42 -83
75 -120 28 -32 57 -75 63 -96 6 -21 18 -47 26 -58 14 -18 15 -17 6 15 -18 65
-34 95 -71 137 -40 44 -69 94 -88 155 -16 47 -61 83 -75 59z"/>
<path d="M4203 3271 c-52 -32 -54 -68 -6 -145 14 -22 29 -66 35 -105 13 -88
58 -181 109 -225 82 -69 271 -96 439 -62 145 29 170 31 170 10 0 -14 -30 -33
-117 -74 -199 -94 -256 -125 -267 -145 -6 -11 -19 -25 -28 -32 -9 -7 -33 -40
-52 -72 -20 -32 -45 -61 -56 -64 -25 -6 -26 -27 -2 -27 28 0 57 25 108 95 26
36 52 65 58 65 5 0 50 26 100 59 91 59 227 131 246 131 5 0 10 -7 10 -15 0 -8
8 -15 18 -15 9 0 41 -9 70 -20 78 -30 82 -28 82 29 0 43 -4 52 -28 70 -16 11
-40 23 -55 26 -44 11 -19 28 34 23 l49 -5 0 48 0 49 -50 0 c-27 0 -50 4 -50 8
0 12 47 32 75 32 23 0 25 4 25 44 0 25 -4 48 -10 51 -5 3 -10 21 -10 40 0 31
-5 36 -78 79 -43 25 -83 46 -89 46 -6 0 -22 10 -37 21 -15 12 -30 19 -33 15
-14 -13 37 -52 123 -92 82 -38 92 -46 90 -69 0 -16 -7 -25 -17 -25 -21 0 -44
-26 -30 -34 5 -3 17 -3 26 1 12 4 16 2 13 -7 -2 -8 -17 -18 -33 -23 -27 -9
-32 -6 -69 37 -75 85 -90 45 -26 -72 22 -40 40 -78 40 -84 0 -13 -46 21 -195
148 -214 181 -336 259 -452 289 -74 19 -92 19 -130 -4z m72 -60 c-3 -2 18 -14
45 -27 28 -13 50 -27 50 -33 0 -16 -33 -22 -70 -11 -18 5 -36 8 -38 6 -2 -3
14 -10 36 -16 30 -10 44 -10 62 0 19 10 37 5 136 -41 132 -61 133 -76 5 -65
-105 9 -116 13 -134 52 -16 33 -18 34 -76 34 -58 0 -61 1 -86 37 -36 54 -30
100 15 116 14 5 64 -42 55 -52z m78 38 c88 -30 96 -38 61 -66 -16 -13 -24 -23
-18 -23 6 0 19 9 29 20 10 11 22 20 27 20 27 0 455 -336 443 -348 -7 -7 15
-32 27 -32 6 0 4 8 -3 18 -11 13 -8 13 11 -3 14 -11 26 -20 28 -21 1 0 -13 -1
-31 -2 -31 -1 -60 13 -295 143 -72 40 -87 55 -54 55 10 0 23 5 29 11 14 14 40
0 103 -51 68 -56 170 -124 176 -118 3 3 -12 16 -33 29 -20 13 -75 52 -120 87
-54 41 -125 82 -205 117 -67 30 -129 61 -137 69 -9 7 -35 23 -58 36 -22 12
-51 36 -62 51 l-22 29 21 0 c11 0 49 -9 83 -21z m-17 -157 c6 -4 16 -17 23
-30 12 -23 12 -23 -41 -16 -57 7 -78 18 -78 40 0 15 76 20 96 6z m84 -72 c69
-10 112 -18 95 -19 -16 -1 -40 -4 -52 -7 -20 -5 -20 -8 -8 -21 12 -12 21 -51
13 -54 -2 0 -37 -6 -78 -13 -48 -9 -62 -14 -40 -14 19 -1 55 3 79 7 43 9 101
-2 101 -18 0 -13 -124 -81 -146 -81 -41 0 -113 113 -129 203 -9 44 -16 44 165
17z m259 -104 c69 -41 145 -82 169 -92 24 -9 41 -18 39 -21 -6 -6 -137 18
-167 30 -14 6 -38 12 -55 14 -16 2 -65 20 -107 40 -75 35 -78 38 -78 70 0 31
2 33 37 33 28 0 67 -18 162 -74z m-94 -60 c18 -13 18 -14 -2 -20 -11 -3 -31
-19 -44 -34 -13 -15 -18 -22 -11 -16 9 8 26 9 50 3 20 -5 62 -8 92 -7 35 1 42
2 20 5 -19 1 -59 6 -89 9 l-54 6 29 19 c36 24 54 24 133 -1 36 -11 98 -23 138
-27 40 -3 72 -7 70 -9 -7 -7 -250 -44 -291 -44 -49 0 -191 26 -215 39 -9 6 0
15 30 31 24 12 55 31 69 41 30 22 50 24 75 5z"/>
<path d="M4213 3203 c9 -2 25 -2 35 0 9 3 1 5 -18 5 -19 0 -27 -2 -17 -5z"/>
<path d="M4305 2975 c-24 -12 -25 -13 -5 -8 14 4 43 10 65 14 l40 6 -35 1
c-19 1 -48 -5 -65 -13z"/>
<path d="M4560 2935 c0 -6 91 -52 128 -66 16 -6 23 -6 17 -1 -12 12 -145 73
-145 67z"/>
<path d="M2590 3273 c0 -5 46 -26 102 -48 100 -40 103 -41 136 -97 18 -31 32
-66 30 -77 -3 -18 -5 -19 -43 -6 -40 14 -61 9 -47 -11 4 -5 32 -22 62 -37 63
-31 128 -82 118 -92 -4 -4 -26 9 -49 29 -24 20 -59 41 -79 46 -21 6 -51 23
-68 40 -56 53 -100 39 -159 -53 -47 -74 -52 -112 -11 -83 31 22 64 20 125 -9
68 -31 148 -107 179 -167 13 -27 29 -48 35 -48 6 0 24 14 41 30 l30 31 43 -26
c63 -36 125 -111 125 -149 0 -40 40 -186 69 -251 25 -57 87 -125 113 -125 23
0 23 5 -2 38 -10 15 -39 84 -63 155 -25 70 -60 153 -78 184 -44 73 -118 149
-170 172 l-40 18 93 8 c51 4 120 8 153 10 38 1 104 17 181 43 208 70 293 123
280 177 -13 52 -78 72 -291 93 l-90 8 83 8 c82 9 114 26 46 26 -92 0 -179 -24
-288 -80 -61 -32 -130 -60 -154 -63 -37 -4 -47 -2 -75 24 -17 16 -35 29 -39
29 -5 0 -8 15 -8 34 0 24 -13 54 -42 98 -41 59 -48 65 -123 95 -78 31 -125 41
-125 26z m825 -228 c215 -21 270 -39 263 -87 -4 -33 -84 -77 -230 -126 -140
-47 -228 -65 -261 -53 -12 4 -60 4 -107 1 -47 -4 -85 -7 -86 -6 -1 0 -4 20 -8
44 -7 49 -6 49 70 25 44 -14 57 -14 83 -3 40 16 40 34 1 25 -43 -9 -138 14
-156 39 -21 30 -18 33 29 40 23 4 87 31 142 61 55 30 102 55 105 55 3 0 73 -7
155 -15z m-695 -31 c0 -5 -63 -34 -75 -34 -3 0 -1 9 5 20 7 13 21 20 40 20 17
0 30 -2 30 -6z m10 -79 c0 -18 -48 -31 -62 -17 -8 8 -7 13 3 16 8 2 21 7 29 9
25 9 30 8 30 -8z"/>
<path d="M4780 3092 c0 -13 80 -72 97 -72 28 0 13 40 -20 54 -56 23 -77 28
-77 18z"/>
<path d="M790 2996 c0 -11 12 -35 26 -54 24 -30 24 -33 6 -23 -18 10 -21 9
-16 -4 4 -8 11 -15 17 -15 6 0 4 -7 -5 -16 -13 -13 -20 -14 -38 -4 -33 18 -34
5 -1 -23 28 -23 29 -26 14 -46 -19 -28 -8 -42 12 -15 13 18 14 17 16 -16 1
-19 3 -27 6 -17 6 21 17 22 37 1 15 -14 18 -13 34 15 12 23 24 31 45 31 22 0
27 5 27 23 0 13 -11 34 -25 47 -23 22 -24 25 -8 42 9 10 13 21 9 26 -4 4 -16
-3 -26 -15 -14 -18 -20 -20 -33 -10 -8 7 -17 19 -20 27 -3 9 -6 6 -6 -9 -1
-24 -1 -24 -22 -5 -12 10 -28 33 -35 49 -9 21 -13 25 -14 11z m151 -133 c12
-15 12 -16 -4 -10 -10 4 -23 7 -28 7 -6 0 -7 5 -4 10 9 15 21 12 36 -7z m-7
-19 c25 -9 19 -24 -9 -24 -16 0 -25 6 -25 15 0 16 9 19 34 9z m-44 -44 c0 -5
-11 -10 -25 -10 -14 0 -25 5 -25 10 0 6 11 10 25 10 14 0 25 -4 25 -10z"/>
<path d="M142 2927 c-2 -69 -16 -95 -55 -102 -20 -4 -44 -2 -57 5 -28 15 -41
3 -16 -16 17 -12 17 -14 3 -20 -28 -10 -21 -52 12 -69 32 -16 61 -51 61 -72 0
-22 -23 -14 -57 19 l-33 32 0 -110 0 -109 20 33 c11 17 24 32 30 32 18 0 11
-18 -20 -54 -30 -34 -31 -36 -28 -133 l3 -98 27 55 c16 30 41 79 58 109 30 55
38 95 20 106 -23 14 -6 36 58 71 75 41 132 90 132 113 0 10 -13 2 -37 -21 -37
-35 -101 -64 -126 -55 -6 2 3 11 21 21 23 12 32 23 32 42 0 14 4 23 10 19 15
-9 25 24 11 38 -6 6 -11 18 -11 27 0 9 -11 27 -25 40 -16 15 -23 31 -20 44 15
77 16 96 2 96 -10 0 -15 -13 -15 -43z m31 -120 c9 -24 -8 -40 -23 -22 -7 8
-19 15 -27 15 -8 0 -11 5 -8 10 9 15 52 12 58 -3z"/>
<path d="M3881 2673 c-1 -24 -3 -43 -6 -43 -2 0 -26 14 -52 30 -48 31 -77 37
-102 21 -26 -17 3 -59 59 -85 l50 -23 -42 -17 c-50 -19 -84 -43 -75 -52 3 -4
17 0 30 9 13 8 40 20 60 25 34 10 36 9 46 -20 8 -23 16 -29 30 -25 16 4 20 -3
25 -54 4 -32 12 -61 18 -65 8 -5 9 18 4 81 -8 98 -5 100 55 32 14 -16 32 -28
39 -25 9 3 -2 20 -32 51 l-45 47 46 0 c55 0 121 34 102 53 -6 6 -43 12 -86 12
-60 0 -78 4 -92 19 -17 18 -17 18 0 13 9 -4 17 -2 17 3 0 6 -6 10 -13 10 -8 0
-19 10 -25 23 -9 20 -11 17 -11 -20z m-70 -26 c30 -25 45 -57 26 -57 -25 1
-102 47 -105 63 -5 25 47 21 79 -6z m259 -46 c0 -14 -27 -21 -81 -21 -46 0
-59 7 -42 23 10 10 123 8 123 -2z"/>
<path d="M470 2684 c-19 -7 -45 -13 -58 -13 -12 -1 -46 -13 -75 -28 -29 -15
-74 -34 -101 -43 -60 -18 -69 -36 -24 -45 38 -8 90 -39 170 -104 86 -68 70
-78 -22 -15 -87 60 -197 114 -231 114 -21 0 -21 -1 -4 -20 32 -36 16 -106 -45
-199 -28 -44 -58 -85 -66 -92 -20 -16 -19 -60 1 -53 20 8 20 -58 0 -116 -8
-23 -15 -45 -15 -49 1 -13 40 42 40 57 0 9 13 -4 28 -29 32 -49 82 -86 157
-115 66 -25 310 -28 325 -4 27 42 -11 250 -65 355 -30 59 -33 70 -20 78 25 14
18 27 -47 88 -62 57 -62 58 -33 57 74 -2 182 23 171 40 -3 5 -31 4 -63 -1 -92
-14 -150 -10 -198 13 -48 23 -59 36 -23 27 12 -3 46 4 77 17 31 13 68 26 83
30 34 8 99 51 91 60 -8 7 -9 7 -53 -10z m-135 -326 c4 -20 2 -45 -4 -55 -9
-15 -10 -14 -11 12 0 17 -3 48 -6 70 -7 52 12 27 21 -27z m55 16 c44 -40 49
-62 24 -109 -9 -16 -22 -44 -29 -62 l-14 -32 43 -21 c61 -31 116 -81 118 -109
2 -18 -6 -31 -31 -48 -51 -35 -66 -30 -95 30 -33 69 -64 222 -54 271 4 20 4
55 -1 76 -5 22 -7 40 -5 40 2 0 22 -16 44 -36z m-249 -166 c12 -28 20 -33 54
-36 31 -2 50 4 78 23 21 14 40 25 42 25 10 0 5 -47 -11 -110 -18 -67 -15 -80
34 -172 4 -7 -91 14 -128 30 -84 35 -150 120 -150 194 0 28 6 41 28 57 35 27
36 27 53 -11z"/>
<path d="M4913 2648 c-9 -11 -33 -26 -52 -34 -67 -28 -208 -124 -219 -149 -31
-68 4 -111 38 -46 10 21 39 53 62 72 24 18 64 53 90 77 42 41 48 43 54 26 19
-59 30 -77 58 -99 44 -33 116 -65 149 -65 26 0 27 2 27 53 l0 52 -60 29 c-33
16 -75 46 -94 66 -34 38 -35 38 -53 18z"/>
<path d="M1293 2625 c-25 -31 -29 -33 -44 -19 -10 9 -15 23 -11 32 3 9 -8 2
-26 -16 -18 -18 -32 -37 -32 -41 0 -5 -9 -7 -20 -4 -26 7 -26 -14 0 -22 11 -3
24 -14 30 -24 8 -16 4 -19 -32 -25 -59 -10 -128 -42 -128 -60 0 -8 9 -20 19
-26 37 -19 78 -11 126 26 l47 35 -4 -58 c-2 -32 -8 -67 -13 -78 -8 -18 -7 -18
8 -6 9 7 20 35 23 63 7 48 8 49 19 27 7 -13 18 -49 24 -79 17 -76 20 -82 30
-76 10 6 -11 111 -30 156 l-11 25 29 -26 c42 -40 69 -50 121 -48 26 1 50 4 54
6 19 10 -40 73 -92 98 -30 14 -44 24 -30 21 14 -4 45 -9 70 -12 33 -4 41 -3
29 5 -9 6 -43 13 -75 17 -33 4 -66 10 -74 15 -23 13 49 11 108 -2 27 -7 62 -9
77 -5 53 13 101 86 56 86 -10 0 -71 -13 -134 -30 -64 -16 -118 -30 -122 -30
-9 0 24 72 42 92 9 10 11 18 5 18 -6 0 -24 -16 -39 -35z m-63 -19 c0 -3 -4 -8
-10 -11 -5 -3 -10 -1 -10 4 0 6 5 11 10 11 6 0 10 -2 10 -4z m304 -30 c-11
-29 -61 -48 -105 -41 -21 4 -41 10 -44 15 -4 7 145 51 153 45 1 -1 0 -10 -4
-19z m-379 -101 l-30 -14 30 5 c29 6 30 6 8 -10 -31 -23 -65 -33 -91 -27 -36
9 -27 24 26 43 60 21 100 23 57 3z m171 -38 l15 -32 -25 28 c-15 15 -26 33
-26 38 0 18 20 -1 36 -34z m56 -29 c-6 -6 -7 0 -4 19 5 21 7 23 10 9 2 -10 0
-22 -6 -28z m31 -9 c-6 -6 -7 3 -4 23 4 28 6 29 9 9 2 -13 0 -27 -5 -32z"/>
<path d="M1938 2604 c-74 -23 -78 -26 -78 -54 0 -16 4 -31 9 -34 11 -7 105 21
154 45 28 15 37 26 37 44 0 32 -20 32 -122 -1z"/>
<path d="M4850 2568 c-11 -18 -27 -58 -36 -88 -23 -78 -38 -110 -70 -148 -16
-19 -47 -70 -69 -115 -33 -64 -49 -86 -78 -102 -20 -11 -37 -26 -37 -33 0 -8
3 -12 8 -10 4 2 27 13 52 25 61 28 83 54 125 148 67 150 64 143 64 116 1 -38
39 -107 69 -127 55 -36 150 -17 215 44 21 20 27 35 27 67 l0 42 -50 6 c-111
13 -205 94 -198 170 2 20 2 37 1 37 -2 0 -12 -15 -23 -32z m93 -249 c23 -10
62 -19 87 -19 37 -1 42 -3 27 -11 -28 -16 -98 -14 -132 4 -39 20 -91 75 -100
107 -7 21 -1 18 34 -18 24 -24 61 -52 84 -63z"/>
<path d="M1732 2533 c-40 -20 -93 -38 -118 -41 -50 -5 -54 -23 -8 -33 58 -13
129 -9 169 10 66 31 79 44 71 74 -8 35 -24 34 -114 -10z"/>
<path d="M3820 2526 c0 -2 -7 -20 -15 -40 -20 -46 -4 -47 18 -1 20 42 20 45 7
45 -5 0 -10 -2 -10 -4z"/>
<path d="M4598 2389 c-15 -8 -148 -193 -148 -205 0 -19 122 86 169 145 29 36
30 39 13 54 -12 11 -22 13 -34 6z"/>
<path d="M481 2361 c-17 -32 107 -183 142 -173 4 1 15 -5 24 -13 10 -10 29
-15 52 -13 38 3 48 21 15 26 -50 7 -66 14 -99 43 -20 17 -54 58 -77 90 -22 33
-42 59 -44 59 -2 0 -8 -8 -13 -19z"/>
<path d="M4255 2255 l-7 -56 -31 20 c-28 17 -39 18 -79 10 l-47 -10 27 -24 27
-23 -24 -19 c-32 -26 -20 -47 22 -37 29 6 30 5 17 -11 -7 -9 -44 -32 -81 -51
-70 -35 -84 -54 -80 -108 4 -64 73 -122 212 -180 135 -55 268 -86 376 -86 107
0 120 -12 51 -48 -52 -27 -112 -70 -116 -83 -8 -20 30 -7 89 31 92 59 102 54
38 -18 -23 -26 -53 -72 -68 -102 -14 -30 -27 -58 -29 -62 -2 -5 3 -8 12 -8 8
0 20 16 27 35 7 19 16 34 19 32 3 -2 22 -11 42 -20 26 -12 36 -22 32 -32 -8
-20 4 -65 16 -65 6 0 10 16 10 35 0 22 7 41 20 53 13 12 24 41 30 78 13 76 13
74 -7 74 -14 0 -14 3 -5 12 17 17 28 -1 36 -58 7 -52 44 -165 58 -179 7 -7 9
4 4 35 -11 75 -32 184 -41 203 -5 13 -4 16 8 11 15 -6 67 -121 67 -149 0 -8 4
-15 9 -15 11 0 -2 51 -30 123 -10 26 -16 47 -13 47 4 0 0 7 -7 17 -13 15 -12
15 10 4 15 -9 20 -16 12 -20 -17 -11 137 -152 172 -158 50 -8 28 22 -68 93
-49 37 -81 63 -70 59 58 -23 155 -54 188 -59 28 -5 37 -4 37 7 0 10 -16 16
-49 20 -88 10 -269 97 -202 97 11 0 44 -9 73 -20 63 -24 68 -24 42 -5 -10 8
-27 15 -36 15 -10 0 -18 4 -18 8 0 13 136 35 165 28 14 -4 25 -2 25 4 0 20
-56 23 -135 7 -112 -24 -139 -22 -153 7 -6 15 -23 27 -42 31 -17 4 -29 9 -27
11 3 3 26 0 51 -7 46 -11 73 -6 47 11 -21 13 -5 40 24 40 15 0 24 4 20 10 -3
6 -14 10 -23 10 -32 0 -94 39 -113 70 -10 16 -23 30 -29 30 -15 0 -12 -8 10
-30 11 -11 20 -29 20 -40 0 -11 6 -20 13 -20 8 0 7 -4 -3 -10 -21 -14 -30 -12
-30 5 0 8 -4 15 -10 15 -13 0 -13 -26 0 -51 8 -15 7 -19 -5 -19 -8 0 -15 4
-15 8 0 5 -33 44 -74 88 -120 129 -221 167 -269 102 -18 -24 -19 -32 -8 -68
25 -86 154 -173 271 -184 60 -6 62 -7 -65 31 -64 19 -128 60 -119 76 4 7 4 9
0 5 -11 -10 -45 22 -63 60 -21 43 -8 87 24 86 12 0 20 3 17 7 -13 22 82 -20
132 -57 33 -26 98 -103 92 -109 -2 -3 -31 21 -64 53 -33 31 -80 68 -104 81
-55 29 -44 18 33 -33 66 -45 98 -81 90 -102 -4 -10 3 -14 28 -14 25 -1 39 -8
52 -26 11 -14 16 -28 13 -31 -3 -3 -36 8 -73 25 -64 29 -153 55 -161 47 -2 -2
16 -9 39 -15 24 -6 79 -27 122 -47 94 -45 86 -55 -46 -55 -143 -1 -374 68
-493 147 -50 33 -84 82 -84 122 0 25 34 55 90 81 25 11 60 30 78 42 28 19 32
20 32 5 0 -9 -4 -14 -10 -10 -11 7 -50 -66 -50 -94 0 -22 35 -51 61 -51 23 0
49 33 49 63 0 14 -8 42 -17 62 -20 43 -11 56 20 27 29 -27 57 -29 57 -3 0 14
10 20 41 24 72 10 105 68 57 101 -29 21 -47 20 -104 -4 -26 -11 -49 -19 -51
-17 -2 3 0 30 5 61 5 31 6 56 2 56 -4 0 -11 -25 -15 -55z m-46 -54 c9 -16 6
-20 -15 -25 -18 -5 -32 -2 -45 10 -28 25 -23 34 16 34 23 0 37 -6 44 -19z
m199 0 c16 -10 -35 -31 -75 -31 -32 0 -20 17 20 29 42 12 40 12 55 2z m22 -29
c0 -21 -43 -45 -84 -48 -66 -5 -65 12 1 34 67 23 83 25 83 14z m-120 -83 c0
-14 -11 -11 -32 8 -27 24 -22 36 7 17 14 -9 25 -20 25 -25z m-117 -77 c-6 -53
-17 -66 -28 -33 -5 16 23 96 32 88 1 -2 0 -27 -4 -55z m53 -26 c-4 -17 -13
-26 -27 -26 -18 0 -20 4 -13 48 3 26 9 51 12 56 10 18 35 -51 28 -78z m598
-175 c4 -5 -5 -4 -19 2 -14 7 -25 16 -25 20 0 9 36 -9 44 -22z m-44 -132 c0
-5 -7 -9 -16 -9 -23 0 -55 20 -49 30 7 11 65 -8 65 -21z m-72 -149 c7 0 12 -7
12 -15 0 -19 -30 -19 -55 -1 -12 8 -16 19 -11 31 6 16 8 17 24 1 10 -9 24 -16
30 -16z"/>
<path d="M1011 2084 c-15 -49 -20 -52 -44 -26 -11 12 -13 22 -7 32 17 26 10
36 -8 12 -17 -22 -20 -22 -70 -11 -40 10 -55 10 -64 1 -9 -9 -9 -12 3 -13 7
-1 25 -2 39 -2 19 -2 26 -9 31 -35 4 -18 14 -41 23 -51 19 -21 21 -35 4 -25
-7 4 -26 9 -43 11 -16 2 -43 8 -59 13 -38 13 -143 13 -151 0 -8 -12 22 -40 83
-76 44 -27 76 -28 157 -8 22 5 25 3 25 -19 0 -24 -49 -77 -71 -77 -6 0 -7 -4
-4 -10 4 -6 18 -5 40 4 41 18 45 11 45 -80 0 -35 4 -64 9 -64 18 0 49 51 56
91 l7 41 30 -31 c39 -40 73 -49 98 -26 27 25 25 63 -5 108 -14 20 -24 37 -21
37 2 0 24 -11 47 -25 43 -24 79 -32 79 -17 0 8 -110 62 -128 62 -16 0 -82 41
-82 51 0 5 37 9 83 9 73 1 80 2 58 14 l-24 13 24 6 c30 8 109 82 109 103 0 28
-29 25 -112 -11 -99 -44 -156 -77 -140 -83 7 -2 55 19 106 47 52 28 105 51
117 51 21 0 19 -4 -21 -45 -48 -49 -77 -61 -162 -67 l-56 -4 3 27 c2 16 9 37
14 48 13 23 14 58 3 65 -4 2 -14 -15 -21 -40z m-74 -30 c-3 -3 -12 -4 -19 -1
-8 3 -5 6 6 6 11 1 17 -2 13 -5z m43 -64 c0 -5 -5 -10 -11 -10 -5 0 -7 5 -4
10 3 6 8 10 11 10 2 0 4 -4 4 -10z m-132 -24 c35 -8 66 -17 70 -20 13 -14 -19
-28 -76 -33 -55 -5 -63 -3 -111 28 -28 19 -51 38 -51 43 0 10 83 2 168 -18z
m171 -77 c-30 -23 -39 -24 -39 -2 0 9 3 14 6 10 4 -3 13 1 21 9 8 8 19 11 25
8 7 -4 1 -14 -13 -25z m41 -29 c-37 -29 -50 -24 -16 6 15 14 31 22 35 19 3 -4
-5 -15 -19 -25z m-82 -61 c8 -44 8 -67 0 -87 -11 -27 -11 -26 -19 18 -10 62
-11 130 -1 130 5 0 14 -27 20 -61z m22 2 c0 -32 -6 -24 -14 19 -4 25 -3 31 4
20 5 -8 10 -26 10 -39z m114 8 c-10 -11 -28 -25 -39 -31 -12 -5 -7 3 13 21 37
35 55 42 26 10z m6 -44 c-7 -8 -20 -15 -29 -15 -11 1 -8 5 9 15 32 18 35 18
20 0z"/>
<path d="M3698 1983 c4 -72 -15 -105 -47 -86 -19 12 -20 11 -9 -12 13 -28 2
-48 -13 -25 -5 8 -7 30 -4 48 5 24 2 32 -9 32 -18 0 -30 -40 -24 -75 12 -60
-43 1 -62 69 -12 43 -63 106 -76 93 -4 -3 5 -20 20 -37 19 -23 26 -43 26 -74
0 -44 11 -65 45 -85 16 -10 9 -11 -40 -7 -246 24 -331 17 -361 -29 -23 -35 -4
-61 69 -96 79 -37 136 -38 218 -3 34 14 64 23 67 20 3 -3 0 -6 -6 -6 -18 0
-60 -70 -67 -112 -6 -29 -3 -40 14 -57 12 -12 31 -21 44 -21 18 0 19 2 7 10
-13 8 -13 10 2 10 16 0 48 -25 48 -38 0 -4 -9 -24 -20 -45 -11 -20 -16 -37
-10 -37 17 0 40 58 40 103 0 39 4 48 35 71 31 24 35 25 35 9 1 -12 5 -8 14 12
9 22 14 26 18 13 11 -28 -10 -90 -42 -123 -17 -18 -28 -35 -22 -39 10 -6 53
37 71 71 6 12 11 41 12 65 l0 43 18 -43 c9 -23 21 -39 25 -35 5 4 5 -2 2 -14
-4 -12 -2 -24 3 -28 7 -4 8 1 4 12 -4 10 9 1 28 -19 57 -60 183 -105 208 -74
34 40 -64 133 -246 231 -2 1 2 15 9 31 7 19 22 34 42 41 116 41 146 59 81 48
-22 -4 -47 -9 -55 -11 -12 -3 -15 6 -15 41 l0 45 33 -6 c20 -4 32 -2 32 5 0 6
-14 11 -31 11 -46 0 -101 37 -94 61 7 22 -3 99 -13 99 -4 0 -6 -26 -4 -57z
m42 -103 c0 -5 -6 -10 -14 -10 -8 0 -18 5 -21 10 -3 6 3 10 14 10 12 0 21 -4
21 -10z m14 -36 c3 -8 2 -12 -4 -9 -6 3 -10 10 -10 16 0 14 7 11 14 -7z m-485
-36 c11 -11 12 -10 6 1 -7 12 9 13 101 7 125 -8 174 -17 177 -31 1 -5 -34 -28
-78 -50 -72 -36 -87 -40 -157 -40 -69 0 -80 3 -120 30 -55 40 -60 61 -16 80
41 18 70 19 87 3z m411 -18 c31 -31 24 -90 -10 -90 -36 0 -85 81 -63 103 13
14 54 6 73 -13z m-64 -127 c-8 -8 -65 54 -66 72 0 5 17 -7 37 -27 20 -21 34
-41 29 -45z m-56 0 c35 -44 18 -62 -20 -21 -13 14 -20 35 -19 57 0 33 1 34 10
13 5 -13 18 -35 29 -49z m-33 -72 c-13 -5 -47 36 -47 57 0 11 10 4 29 -18 16
-20 24 -37 18 -39z m252 17 c31 -18 58 -33 61 -33 19 -1 110 -97 110 -115 0
-6 -11 -10 -25 -10 -32 0 -106 30 -100 40 3 5 0 12 -6 16 -8 4 -9 3 -5 -4 10
-17 -6 -15 -32 4 -21 15 -72 102 -72 124 0 15 8 13 69 -22z"/>
<path d="M3295 1790 c3 -5 -3 -13 -12 -19 -26 -15 -2 -13 26 3 23 13 23 13 2
19 -11 3 -19 1 -16 -3z"/>
<path d="M3358 1793 c7 -3 16 -2 19 1 4 3 -2 6 -13 5 -11 0 -14 -3 -6 -6z"/>
<path d="M3435 1780 c-7 -12 2 -12 30 0 19 8 19 9 -2 9 -12 1 -25 -3 -28 -9z"/>
<path d="M3380 1755 c-19 -10 -28 -11 -39 -2 -12 9 -13 9 -8 0 5 -8 -4 -18
-23 -28 -16 -8 -30 -17 -30 -20 0 -4 131 53 139 61 9 9 -15 3 -39 -11z"/>
<path d="M3819 1557 c8 -9 16 -15 19 -12 3 3 12 -1 20 -8 13 -11 14 -9 2 13
-8 16 -15 20 -18 12 -3 -10 -7 -10 -20 0 -15 12 -16 11 -3 -5z"/>
<path d="M3870 1516 c0 -2 8 -10 18 -17 15 -13 16 -12 3 4 -13 16 -21 21 -21
13z"/>
<path d="M2941 1996 c-23 -24 -23 -25 -5 -54 15 -27 16 -38 5 -99 -17 -103
-17 -107 0 -111 27 -5 61 89 62 175 1 61 -2 76 -19 93 l-20 20 -23 -24z"/>
<path d="M4474 1902 c3 -6 -3 -12 -16 -15 -17 -3 -14 -5 10 -6 23 -1 45 -13
76 -41 48 -45 73 -54 35 -14 -27 29 -116 93 -105 76z"/>
<path d="M2525 1822 c-45 -42 -129 -121 -188 -175 -99 -92 -147 -153 -147
-192 0 -28 18 -16 45 30 18 31 65 76 148 142 235 186 290 242 257 263 -25 16
-33 12 -115 -68z"/>
<path d="M275 1842 c-16 -11 -36 -26 -44 -35 -14 -18 -46 -24 -36 -7 3 6 -1
10 -9 10 -10 0 -13 -6 -10 -15 4 -9 0 -15 -9 -15 -8 0 -17 -5 -19 -11 -3 -8
-21 -9 -57 -4 -42 6 -54 12 -61 30 -9 25 -30 43 -30 26 0 -5 4 -13 10 -16 13
-8 13 -92 0 -100 -5 -3 -10 -12 -10 -18 1 -20 40 34 40 55 0 16 5 18 38 13 61
-11 69 -14 52 -25 -26 -16 6 -35 57 -32 38 1 51 -3 80 -28 38 -34 77 -39 122
-16 34 18 91 81 91 101 0 24 -33 34 -86 26 -27 -5 -43 -9 -36 -10 7 0 11 -5 7
-10 -7 -13 -90 -25 -105 -16 -16 10 7 35 48 52 24 10 32 20 32 38 0 31 -22 33
-65 7z m43 -17 c-24 -22 -88 -57 -88 -48 0 11 37 46 65 61 24 13 42 4 23 -13z
m147 -65 c8 -13 -11 -40 -54 -76 -44 -37 -99 -39 -135 -5 -14 14 -26 27 -26
31 0 4 24 12 53 19 28 6 63 18 77 26 29 17 76 19 85 5z"/>
<path d="M2737 1777 c-8 -18 -29 -99 -46 -180 -27 -134 -29 -152 -17 -182 25
-58 56 -56 34 3 -11 27 -8 39 24 109 36 77 60 153 72 224 6 34 4 38 -23 47
-27 10 -31 8 -44 -21z"/>
<path d="M310 1770 c0 -5 7 -10 15 -10 8 0 15 5 15 10 0 6 -7 10 -15 10 -8 0
-15 -4 -15 -10z"/>
<path d="M5025 1664 c11 -3 33 -10 50 -15 21 -7 26 -6 19 1 -6 6 -28 13 -50
15 -21 2 -30 2 -19 -1z"/>
<path d="M5025 1620 c19 -8 103 -14 94 -6 -2 2 -29 6 -59 9 -34 3 -47 2 -35
-3z"/>
<path d="M220 1599 c0 -5 5 -7 10 -4 6 3 10 8 10 11 0 2 -4 4 -10 4 -5 0 -10
-5 -10 -11z"/>
<path d="M1274 1596 c-14 -36 46 -104 98 -113 48 -7 60 -23 19 -23 -17 0 -31
-5 -31 -11 0 -8 17 -10 52 -7 l53 6 -39 -34 c-22 -19 -37 -37 -33 -40 3 -4 20
5 37 20 35 29 60 34 60 11 0 -8 4 -15 9 -15 5 0 12 -11 15 -25 4 -14 11 -25
17 -25 7 0 9 9 4 23 -15 49 -17 67 -7 67 6 0 14 -4 17 -10 3 -5 13 -10 22 -10
11 0 9 5 -8 20 l-24 20 30 -6 30 -5 -22 19 c-13 11 -23 28 -23 37 0 12 -6 15
-19 10 -16 -5 -20 0 -23 21 -4 40 -28 43 -28 5 l0 -32 -52 40 c-91 67 -143 86
-154 57z m90 -31 c23 -14 53 -36 65 -49 l23 -25 -50 3 c-55 2 -83 20 -108 68
-14 26 -13 28 6 28 12 0 41 -11 64 -25z"/>
<path d="M1390 1510 c8 -5 20 -10 25 -10 6 0 3 5 -5 10 -8 5 -19 10 -25 10 -5
0 -3 -5 5 -10z"/>
<path d="M171 1555 c-1 -12 4 -26 10 -32 9 -9 6 -13 -13 -18 -13 -3 -28 -5
-34 -3 -5 2 -10 -1 -11 -7 -1 -5 11 -9 27 -7 17 2 40 -4 52 -12 22 -15 21 -16
-16 -13 -24 1 -41 -3 -43 -10 -3 -8 3 -13 14 -13 10 0 25 -5 33 -11 11 -8 6
-9 -22 -4 -31 5 -37 3 -43 -15 -16 -50 20 -91 52 -59 7 7 12 3 17 -16 15 -60
82 16 72 83 -6 39 2 40 30 5 12 -16 26 -25 30 -21 4 5 0 16 -9 26 -21 23 -21
32 -3 32 7 0 19 7 26 15 15 18 7 19 -22 4 -25 -14 -33 -6 -19 20 9 16 7 25
-13 45 -28 31 -37 32 -61 6 -15 -17 -16 -24 -7 -46 9 -17 9 -23 1 -18 -6 3
-19 25 -29 48 -13 28 -19 34 -19 21z m89 -5 c0 -5 -4 -10 -10 -10 -5 0 -10 5
-10 10 0 6 5 10 10 10 6 0 10 -4 10 -10z"/>
<path d="M340 1510 c19 -13 30 -13 30 0 0 6 -10 10 -22 10 -19 0 -20 -2 -8
-10z"/>
<path d="M1037 1445 c-20 -48 -31 -49 -49 -7 -11 26 -12 26 -15 5 -3 -17 -11
-23 -29 -23 -24 0 -32 -14 -14 -25 21 -13 -3 -25 -51 -25 -27 0 -49 -4 -49
-10 0 -5 23 -10 50 -10 56 0 66 -15 20 -31 -16 -6 -30 -16 -30 -21 0 -10 17
-8 50 6 11 5 16 1 16 -13 0 -16 -5 -19 -24 -14 -36 9 -23 -18 14 -30 54 -18
74 -45 74 -103 0 -63 9 -92 21 -72 6 9 10 3 15 -20 4 -18 11 -35 17 -39 7 -4
8 7 3 33 -4 21 -10 59 -13 84 l-6 45 24 -22 c38 -34 120 -68 129 -53 6 10 12
7 21 -9 8 -11 18 -21 23 -21 5 0 2 8 -7 18 -19 21 -22 48 -7 57 6 3 10 15 10
27 0 14 -5 18 -16 14 -10 -4 -26 3 -42 19 -14 14 -40 34 -58 46 -43 26 -43 45
-1 54 55 12 81 31 112 83 17 28 38 53 49 56 10 3 15 9 11 16 -5 9 -10 9 -18 1
-6 -6 -29 -11 -52 -11 -29 0 -54 -9 -86 -29 -62 -42 -79 -57 -79 -70 0 -7 -9
-9 -25 -5 -16 4 -34 0 -50 -10 -22 -15 -25 -15 -25 -1 0 24 47 42 71 27 17
-11 19 -9 19 10 1 13 7 34 15 48 15 27 20 70 8 70 -5 0 -16 -20 -26 -45z m174
-48 c-38 -55 -48 -63 -94 -71 -42 -8 -60 12 -36 40 20 25 111 74 137 74 23 0
23 0 -7 -43z m-216 -89 c-11 -6 -23 -16 -27 -22 -5 -7 -8 -8 -8 0 0 15 22 34
40 34 11 -1 10 -4 -5 -12z m25 -48 c-8 -5 -19 -10 -25 -10 -5 0 -3 5 5 10 8 5
20 10 25 10 6 0 3 -5 -5 -10z m60 -4 c0 -3 -15 -15 -32 -27 l-33 -23 24 27
c22 24 41 35 41 23z m9 -62 c-14 -15 -26 -21 -32 -15 -6 6 1 19 19 35 35 30
45 14 13 -20z m67 -15 c3 -6 -3 -20 -14 -32 -18 -18 -23 -18 -37 -7 -16 13
-15 16 5 32 26 21 36 22 46 7z"/>
<path d="M4290 1264 l0 -37 -21 19 c-22 19 -22 19 -10 -4 19 -36 4 -44 -40
-21 -51 25 -129 35 -158 20 -21 -12 -21 -13 -4 -41 30 -52 92 -70 162 -50 19
5 37 8 39 5 2 -2 -12 -23 -32 -46 -35 -42 -46 -69 -26 -69 6 0 10 4 10 9 0 13
50 71 61 71 5 0 9 -21 9 -46 0 -39 2 -45 18 -40 13 5 22 -1 30 -16 10 -19 11
-13 6 35 -4 33 -2 57 3 57 13 0 48 -40 58 -65 5 -13 9 -16 12 -7 3 7 -7 30
-21 51 -34 48 -35 84 -3 76 42 -11 61 18 58 89 l-1 28 -36 -32 c-47 -41 -77
-38 -84 9 -7 49 -30 53 -30 5z m136 -70 c-3 -8 -15 -14 -27 -14 -21 0 -22 1
-4 20 10 11 15 20 10 20 -4 0 -1 7 6 17 13 15 14 14 17 -6 2 -12 1 -29 -2 -37z
m-266 30 c36 -11 49 -18 40 -24 -9 -6 -5 -10 16 -12 l29 -4 -28 -12 c-47 -20
-92 -15 -127 15 -30 25 -31 27 -14 40 22 16 19 16 84 -3z m226 -19 c-11 -8
-22 -12 -25 -9 -6 6 19 24 34 24 6 -1 1 -7 -9 -15z m-50 -82 c-10 -10 -19 5
-10 18 6 11 8 11 12 0 2 -7 1 -15 -2 -18z"/>
<path d="M4148 1203 c7 -3 16 -2 19 1 4 3 -2 6 -13 5 -11 0 -14 -3 -6 -6z"/>
<path d="M2757 1279 c-22 -13 -23 -89 -2 -149 8 -23 15 -45 15 -47 0 -3 -34
32 -77 77 -84 90 -132 120 -191 120 -84 0 -73 -59 22 -125 79 -54 79 -39 0 18
-51 37 -65 52 -62 70 4 29 38 34 94 12 57 -22 210 -183 191 -202 -4 -3 -35 9
-69 27 -66 34 -68 35 -188 46 -66 6 -86 3 -150 -19 -73 -24 -155 -65 -147 -73
2 -3 30 9 61 25 62 33 62 33 149 -17 39 -23 62 -44 71 -66 16 -38 61 -61 106
-54 29 4 30 4 15 -18 -8 -12 -37 -60 -64 -106 -27 -47 -68 -101 -90 -121 -23
-20 -36 -37 -31 -37 18 0 95 77 115 115 15 27 24 34 40 29 11 -4 22 -6 25 -6
34 -1 53 6 78 27 l29 24 12 -52 c16 -72 48 -140 63 -135 41 14 89 270 60 316
-8 12 -12 26 -8 29 15 16 205 -205 243 -282 l15 -30 -24 26 c-13 14 -32 32
-43 39 -11 8 1 -8 28 -36 26 -27 47 -56 47 -63 0 -26 -81 52 -107 103 -24 48
-119 176 -130 176 -3 0 2 -10 11 -22 9 -13 23 -38 32 -56 8 -18 19 -30 24 -27
13 8 72 -107 66 -129 -4 -14 -2 -16 6 -8 8 8 23 1 54 -28 54 -49 69 -51 60 -7
-11 55 -57 138 -113 204 -30 36 -53 66 -51 68 1 1 46 24 98 50 128 64 154 83
139 101 -10 12 1 14 70 14 194 0 336 -69 380 -185 l11 -30 -4 29 -4 29 92 -6
c50 -4 102 -10 116 -13 24 -7 24 -7 7 10 -10 10 -16 21 -13 23 3 3 33 -18 66
-46 34 -28 69 -51 78 -51 11 0 6 7 -13 18 -17 10 -45 35 -63 56 -50 57 -41 73
20 36 18 -11 43 -20 56 -20 56 0 86 92 40 124 -12 9 -32 16 -43 16 -22 0 -99
-59 -78 -60 6 0 15 5 18 10 3 6 20 17 36 26 28 14 33 14 55 -1 20 -13 24 -23
22 -48 -4 -43 -45 -64 -85 -45 -34 17 -40 35 -14 43 12 3 21 11 21 16 0 6 -8
5 -20 -1 -23 -12 -60 -5 -60 12 0 6 11 31 25 55 14 23 21 43 16 43 -6 0 -24
-24 -41 -52 -16 -29 -30 -46 -30 -38 0 11 -3 12 -8 3 -5 -8 -23 9 -51 48 -51
69 -96 111 -151 139 -61 31 -64 29 -56 -52 3 -40 10 -86 14 -103 11 -39 58
-70 144 -96 37 -12 71 -25 74 -30 3 -5 -35 -9 -88 -9 -93 0 -93 0 -110 30 -43
75 -186 130 -353 135 -82 3 -127 10 -174 26 -63 23 -65 23 -145 6 -44 -9 -82
-14 -85 -11 -4 3 7 17 23 31 22 19 36 23 58 19 35 -7 38 9 3 18 -30 8 -77 -14
-100 -46 -16 -22 -16 -21 -10 27 10 80 -24 138 -68 114z m43 -24 c14 -17 8
-131 -8 -147 -12 -12 -42 72 -42 117 0 47 24 61 50 30z m921 -123 c24 -28 54
-69 67 -92 l24 -42 -88 71 c-49 40 -97 71 -110 71 -22 0 -34 22 -34 68 l0 22
49 -24 c26 -14 68 -47 92 -74z m-76 -18 c14 -9 22 -21 18 -27 -3 -6 -1 -7 5
-3 6 3 39 -21 74 -55 60 -57 61 -60 33 -55 -58 9 -146 48 -159 69 -8 12 -17
37 -21 55 -8 37 9 43 50 16z m-1051 -24 c37 -12 66 -23 64 -25 -2 -2 -43 3
-91 11 -49 8 -93 14 -99 12 -6 -2 36 -13 93 -23 l104 -19 -90 -21 -90 -21 -30
22 c-16 11 -50 32 -74 45 l-43 24 38 12 c50 16 131 9 218 -17z m499 16 c45
-17 79 -45 70 -59 -3 -5 -57 -34 -120 -65 l-115 -55 -44 44 c-24 24 -44 47
-44 51 0 13 34 9 73 -7 20 -8 44 -15 54 -14 10 0 -2 8 -27 17 l-45 17 100 6
100 5 -122 2 c-68 1 -123 6 -123 10 0 13 32 40 60 51 36 14 139 12 183 -3z
m-253 -16 c0 -5 -5 -10 -11 -10 -5 0 -7 5 -4 10 3 6 8 10 11 10 2 0 4 -4 4
-10z m-100 -65 c0 -3 -28 -23 -62 -45 -47 -31 -71 -40 -103 -40 -48 0 -98 31
-80 49 19 19 245 52 245 36z m-32 -118 c-32 -80 -69 -117 -116 -117 -33 0 -33
12 -1 63 24 38 137 142 146 134 1 -2 -12 -38 -29 -80z m92 14 c15 -54 12 -138
-7 -198 -9 -29 -19 -53 -22 -53 -3 0 -5 24 -4 52 l1 53 -7 -45 -7 -45 -17 54
c-24 76 -20 123 15 214 13 34 33 22 48 -32z"/>
<path d="M3108 1053 c6 -2 18 -2 25 0 6 3 1 5 -13 5 -14 0 -19 -2 -12 -5z"/>
<path d="M2773 865 c0 -33 2 -45 4 -27 2 18 2 45 0 60 -2 15 -4 0 -4 -33z"/>
<path d="M419 1222 c-1 -4 -1 -10 -1 -13 1 -4 -26 -9 -60 -12 -46 -4 -88 -19
-179 -63 -113 -55 -147 -63 -119 -29 7 9 10 19 6 23 -9 9 -37 -28 -30 -39 8
-13 -10 -11 -24 3 -9 9 -12 5 -12 -22 0 -18 3 -30 7 -27 3 4 17 -3 30 -15 l23
-22 -2 25 c-3 21 9 30 112 82 83 42 130 59 170 63 l55 6 -75 -43 c-41 -23 -88
-52 -105 -64 -16 -13 -59 -37 -94 -55 -63 -31 -63 -31 -78 -11 -24 35 -43 26
-43 -19 0 -35 3 -40 23 -41 21 0 21 -1 2 -10 -19 -9 -20 -20 -21 -197 -1 -123
1 -170 6 -137 5 28 9 72 9 98 2 92 18 37 25 -83 4 -67 11 -129 15 -138 5 -9
17 -37 27 -62 22 -53 83 -150 95 -150 13 0 11 8 -15 53 -13 23 -27 58 -31 77
-4 19 -15 49 -25 67 -11 18 -15 35 -10 38 19 12 31 86 22 131 -5 24 -7 44 -4
44 3 0 27 -20 53 -45 30 -28 57 -45 73 -45 41 0 179 60 213 93 45 42 56 84 51
188 -2 49 -2 89 0 89 2 0 17 -11 34 -25 51 -43 75 -26 44 33 -16 31 -66 80
-66 65 0 -5 11 -20 24 -32 25 -23 51 -81 38 -81 -22 0 -82 65 -92 98 -13 50
-13 57 5 42 8 -7 15 -9 15 -5 0 4 21 -12 47 -36 49 -45 71 -40 33 8 l-21 27
31 12 c40 17 38 24 -5 17 -28 -4 -36 -2 -42 13 -3 11 -10 22 -15 25 -5 3 3 18
16 32 l25 27 -28 0 c-18 0 -31 -7 -35 -16 -6 -15 -8 -15 -26 1 -11 10 -20 23
-20 30 0 13 -49 39 -51 27z m20 -66 c8 -10 8 -16 -3 -25 -15 -12 -135 -35
-143 -27 -6 5 106 65 123 66 6 0 17 -6 23 -14z m12 -58 c-16 -42 -23 -132 -12
-158 9 -23 10 -22 11 15 1 22 4 58 8 80 7 38 8 37 22 -40 8 -44 14 -114 14
-155 0 -116 -28 -155 -145 -200 -43 -16 -86 -30 -96 -30 -20 1 -59 52 -112
145 -18 33 -47 80 -65 105 -40 59 -44 76 -11 54 14 -9 25 -20 25 -25 0 -5 20
-9 43 -9 31 0 49 6 61 19 10 11 31 25 47 31 16 7 29 16 29 21 0 16 -44 9 -79
-12 -42 -26 -98 -22 -118 7 -13 20 -10 23 46 52 48 26 70 32 120 32 74 0 120
18 173 66 44 39 53 40 39 2z m-81 -20 c-29 -23 -92 -40 -137 -36 l-36 3 35 25
c29 20 48 25 98 25 61 1 62 0 40 -17z m-286 -271 c38 -51 47 -87 21 -87 -17 0
-41 42 -60 107 -15 50 -14 50 39 -20z m22 -189 c6 -46 -11 -107 -26 -92 -4 5
-10 56 -12 113 l-3 103 18 -40 c9 -23 20 -60 23 -84z"/>
<path d="M510 1210 c-14 -10 -22 -21 -19 -24 2 -3 18 6 34 19 35 29 22 33 -15
5z"/>
<path d="M4890 1180 c-10 -6 -15 -26 -14 -64 l0 -56 -40 23 c-32 18 -52 23
-89 19 -46 -4 -77 8 -77 30 0 10 17 8 53 -7 9 -4 17 -3 17 3 0 11 -78 28 -86
19 -10 -10 59 -98 88 -113 16 -8 58 -21 93 -29 36 -7 78 -23 95 -35 17 -12 55
-25 85 -29 83 -11 78 -21 -11 -21 -69 0 -86 -4 -134 -30 -30 -16 -63 -29 -72
-30 -10 0 -18 -4 -18 -10 0 -16 76 -12 90 5 7 8 22 15 33 15 11 0 28 6 36 14
18 15 143 28 138 13 -1 -5 -38 -20 -82 -35 -69 -22 -88 -34 -140 -86 -62 -63
-121 -166 -145 -255 -16 -62 -4 -71 62 -41 89 41 159 82 165 98 4 9 -9 27 -35
49 -23 19 -42 41 -42 49 0 23 14 16 32 -16 29 -50 82 -40 186 35 l42 30 0 88
c0 49 -5 98 -11 109 -8 15 -8 19 0 14 7 -5 11 10 11 46 -1 50 -2 52 -14 29
l-14 -24 -7 24 c-13 47 -78 130 -120 154 -46 28 -53 29 -75 15z m63 -30 c8
-11 16 -17 19 -14 16 15 112 -144 102 -169 -12 -33 -140 8 -164 53 -17 31 -12
41 18 35 26 -5 26 -5 4 5 -13 5 -28 8 -33 4 -10 -6 -13 89 -2 99 13 14 42 7
56 -13z m-117 -82 c39 -19 61 -44 50 -55 -2 -2 -31 1 -64 7 -62 13 -122 42
-122 60 0 18 91 11 136 -12z m202 -253 c-1 -1 -23 -12 -47 -25 -29 -14 -47
-18 -53 -12 -15 15 0 32 46 53 36 16 42 16 49 3 5 -9 7 -17 5 -19z m62 -54
c-1 -13 -4 -12 -15 3 -8 11 -15 27 -15 35 1 13 4 12 15 -3 8 -11 15 -27 15
-35z m-44 -25 c5 -30 4 -38 -7 -34 -17 6 -33 54 -25 75 9 23 23 5 32 -41z
m-132 35 c3 -4 -3 -16 -14 -26 -19 -17 -20 -17 -20 2 0 29 22 45 34 24z m42
-108 c-7 -7 -26 7 -26 19 0 6 6 6 15 -2 9 -7 13 -15 11 -17z"/>
<path d="M4934 1103 c21 -23 36 -45 34 -50 -2 -4 16 -28 40 -53 l44 -45 -37
53 c-45 63 -32 70 15 7 18 -25 36 -43 38 -40 2 2 -9 21 -25 42 -17 21 -38 53
-47 71 -9 17 -19 32 -22 32 -2 0 0 -9 6 -21 14 -25 3 -41 -11 -17 -5 9 -24 27
-42 39 -31 22 -31 21 7 -18z"/>
<path d="M5085 1171 c-2 -5 4 -11 15 -14 11 -3 20 -2 20 3 0 12 -28 21 -35 11z"/>
<path d="M4755 1120 c3 -5 11 -10 16 -10 6 0 7 5 4 10 -3 6 -11 10 -16 10 -6
0 -7 -4 -4 -10z"/>
<path d="M4543 930 c4 -17 0 -20 -26 -20 -64 0 -74 -32 -15 -48 l30 -8 -26
-31 c-34 -40 -33 -50 2 -23 25 21 27 21 30 3 5 -21 41 -63 55 -63 6 0 1 10
-11 23 -26 27 -28 37 -7 37 9 0 20 -11 27 -25 6 -13 15 -22 19 -19 5 3 2 18
-6 34 -21 40 -19 45 11 25 14 -9 29 -14 32 -10 4 4 0 10 -8 15 -8 5 -24 15
-35 24 l-20 15 20 6 c59 19 86 36 83 53 -5 25 -47 27 -79 3 l-28 -21 -19 25
c-24 30 -36 32 -29 5z m147 -11 c0 -12 -69 -43 -78 -35 -3 3 3 15 13 26 19 21
65 28 65 9z m-160 -34 c0 -16 -9 -19 -34 -9 -25 9 -19 24 9 24 16 0 25 -6 25
-15z"/>
<path d="M1840 933 c0 -5 9 -23 20 -41 11 -18 20 -34 20 -36 0 -2 -20 -1 -45
2 -32 3 -52 0 -71 -13 -26 -17 -26 -17 -7 -37 13 -13 35 -20 62 -21 22 -1 41
-3 41 -4 0 -2 -17 -11 -37 -22 -24 -13 -31 -20 -20 -21 10 0 27 5 38 10 17 10
19 7 19 -25 0 -24 5 -35 14 -35 18 0 56 47 56 69 0 8 12 -2 27 -24 15 -22 28
-34 31 -27 2 7 -3 24 -12 37 -9 13 -16 26 -16 29 0 3 19 6 42 8 61 4 62 29 2
55 l-46 20 23 16 c12 9 20 20 16 23 -4 4 -13 1 -21 -5 -12 -10 -15 -8 -18 10
-2 12 -10 25 -18 27 -13 5 -13 3 -1 -12 11 -13 11 -20 3 -28 -7 -7 -12 -8 -12
-4 0 5 -7 3 -15 -4 -8 -7 -12 -16 -9 -21 3 -5 3 -9 1 -9 -3 0 -17 20 -31 45
-26 43 -36 54 -36 38z m29 -102 c20 -13 4 -31 -29 -31 -39 0 -83 18 -75 30 8
12 85 13 104 1z m135 -11 c39 -14 31 -30 -14 -30 -27 0 -40 4 -40 13 0 28 15
32 54 17z"/>
<path d="M1327 884 c-13 -26 -21 -33 -30 -26 -7 5 -25 12 -40 16 -22 5 -28 3
-25 -6 3 -7 16 -13 30 -13 24 1 25 -1 12 -30 -8 -20 -9 -36 -3 -46 5 -7 9 -10
9 -5 0 5 9 1 20 -9 11 -10 20 -23 20 -29 0 -6 -7 -2 -16 9 -8 11 -21 19 -28
17 -10 -2 -91 82 -123 127 -2 2 -6 2 -9 -2 -3 -3 7 -25 23 -49 51 -76 52 -71
-14 -63 -74 8 -173 -9 -191 -33 -11 -14 -10 -20 9 -34 12 -10 36 -18 54 -18
l33 0 -19 -40 c-24 -49 -24 -67 0 -80 27 -14 119 -12 165 5 l38 13 -26 -27
c-14 -15 -26 -33 -26 -40 0 -17 108 78 116 101 5 16 10 13 35 -22 35 -48 61
-54 29 -7 -35 52 -43 75 -36 94 7 17 8 17 22 -2 11 -15 17 -17 23 -7 5 9 22
11 52 7 l44 -5 -35 17 c-31 16 -35 22 -32 50 2 20 12 39 25 48 16 11 18 15 5
15 -8 0 -21 -7 -28 -15 -17 -21 -32 -14 -37 15 -2 14 -11 28 -19 33 -12 7 -14
18 -9 43 8 43 3 43 -18 -2z m50 -129 c3 -9 3 -19 -1 -22 -8 -9 -37 18 -30 28
8 14 24 11 31 -6z m-197 0 c0 -5 -43 -24 -65 -29 -5 -2 -28 -8 -50 -15 -64
-20 -130 15 -72 39 23 9 187 14 187 5z m103 -110 c-9 -24 -17 -18 -51 39 -44
73 -40 80 13 23 26 -28 42 -54 38 -62z m-66 -29 c-2 -5 -13 -13 -25 -17 -15
-6 -20 -4 -16 5 3 7 -9 30 -26 51 -49 62 -36 75 20 20 28 -27 49 -54 47 -59z
m-104 30 c32 -41 34 -56 8 -56 -24 0 -65 55 -57 75 8 22 18 18 49 -19z"/>
<path d="M4520 770 c-13 -8 -12 -10 3 -10 9 0 17 5 17 10 0 12 -1 12 -20 0z"/>
<path d="M3972 725 c-24 -51 -31 -54 -57 -25 -10 11 -25 20 -34 21 -9 0 -3 5
12 9 16 5 36 6 44 3 10 -4 14 -2 11 7 -4 12 -29 16 -66 11 -4 -1 -20 -13 -36
-28 -28 -25 -29 -26 -42 -8 -8 10 -16 16 -20 13 -9 -9 35 -50 46 -43 16 10 22
-19 11 -48 -13 -34 -22 -34 -73 3 -34 25 -51 30 -83 28 -53 -4 -52 -23 3 -65
38 -29 49 -32 83 -27 46 8 50 -4 10 -31 -37 -24 -30 -40 10 -20 28 15 29 15
29 -9 0 -14 -4 -28 -10 -31 -5 -3 -10 -12 -10 -19 0 -22 53 -131 57 -119 3 7
-5 33 -17 59 -14 32 -17 51 -10 58 7 7 10 6 10 -2 0 -6 14 -27 31 -47 59 -66
129 -32 129 63 l0 45 23 -21 c23 -22 47 -29 47 -15 0 4 -19 26 -42 50 -23 23
-39 46 -35 50 4 4 28 -3 52 -15 58 -28 99 -28 155 1 53 26 58 50 17 81 -38 28
-105 24 -164 -9 -51 -28 -85 -32 -102 -11 -9 10 -7 16 5 26 27 23 64 110 47
110 -5 0 -19 -20 -31 -45z m246 -89 c19 -18 8 -35 -34 -52 -45 -19 -88 -18
-127 3 l-32 18 45 5 c45 6 45 6 10 11 l-35 4 45 17 c50 19 106 17 128 -6z
m-473 -3 c0 -6 4 -15 9 -20 5 -5 6 -3 2 5 -10 16 9 16 23 -1 31 -39 -45 -36
-89 3 l-35 30 45 -2 c26 -2 45 -8 45 -15z m180 -23 c-11 -5 -29 -9 -40 -9 -17
-1 -17 1 -5 9 8 5 26 9 40 9 23 0 23 -1 5 -9z m22 -26 c-3 -3 -12 -4 -19 -1
-8 3 -5 6 6 6 11 1 17 -2 13 -5z m-44 -11 c-7 -2 -19 -2 -25 0 -7 3 -2 5 12 5
14 0 19 -2 13 -5z m52 -43 c-11 -5 -38 -8 -60 -8 l-40 1 40 7 c22 4 49 7 60 8
l20 1 -20 -9z m-27 -67 c-10 -2 -28 -2 -40 0 -13 2 -5 4 17 4 22 1 32 -1 23
-4z"/>
<path d="M4180 620 c8 -5 22 -9 30 -9 10 0 8 3 -5 9 -27 12 -43 12 -25 0z"/>
<path d="M4138 603 c7 -3 16 -2 19 1 4 3 -2 6 -13 5 -11 0 -14 -3 -6 -6z"/>
<path d="M5106 688 c-5 -16 -5 -36 0 -45 7 -16 8 -15 11 5 3 12 3 32 0 45 -3
21 -4 20 -11 -5z"/>
<path d="M1947 593 c-14 -21 -35 -48 -47 -61 l-21 -22 -31 21 c-16 12 -35 35
-40 50 -5 16 -14 29 -19 29 -5 0 -4 -12 1 -26 13 -33 13 -34 -8 -34 -25 0 -50
-30 -58 -69 -6 -30 -7 -31 -25 -15 -23 20 -38 11 -19 -11 15 -18 3 -31 -62
-65 -47 -25 -49 -41 -5 -33 29 4 34 2 50 -31 9 -20 24 -36 32 -36 13 0 14 -4
5 -21 -15 -26 -3 -40 15 -16 10 14 18 16 39 7 38 -14 76 -12 110 5 35 18 36
18 36 0 0 -8 7 -15 15 -15 19 0 19 4 0 40 -15 28 -14 30 5 30 15 0 19 6 17 23
-2 22 0 23 46 10 12 -4 17 1 18 13 0 13 3 10 9 -8 27 -89 130 -182 254 -228
35 -13 28 -21 -39 -45 -27 -10 -70 -32 -95 -49 l-45 -31 42 -3 c32 -2 58 5
113 33 64 32 72 39 67 61 -2 13 0 24 4 24 5 0 9 -9 9 -19 0 -30 33 -34 117
-13 90 23 213 37 213 24 0 -5 -28 -16 -62 -26 -83 -22 -223 -79 -208 -84 12
-4 61 9 180 49 59 19 60 20 -12 -33 -22 -17 -20 -17 72 -17 75 1 89 3 68 11
-30 10 -38 28 -13 28 9 0 30 -7 47 -16 38 -19 188 -32 188 -16 0 6 -4 14 -10
17 -16 10 -12 35 6 35 9 0 33 -13 54 -30 28 -22 48 -30 76 -30 34 1 36 2 19
12 -69 37 -106 60 -103 63 2 3 39 -7 82 -21 81 -25 254 -59 263 -51 2 3 -22
10 -54 16 -97 19 -227 53 -253 67 l-25 13 25 1 c23 1 23 2 5 10 -14 6 6 9 60
9 98 1 148 14 173 45 14 18 33 26 75 31 35 5 57 4 57 -2 0 -19 -97 -101 -128
-107 -17 -4 -56 -2 -88 3 -32 6 -74 11 -93 10 -20 0 12 -9 70 -19 58 -10 128
-28 155 -41 83 -39 90 -42 77 -29 -6 7 -37 25 -69 40 l-58 28 63 7 63 7 33
-37 c34 -36 35 -36 90 -30 44 6 59 4 73 -8 22 -20 67 -19 50 0 -8 10 -6 17 8
28 67 49 268 46 459 -6 111 -31 133 -33 300 -37 l180 -3 -35 36 c-68 71 -104
78 -173 31 -20 -14 -37 -21 -37 -15 0 20 58 69 82 69 37 -1 103 -35 150 -78
l43 -40 83 0 c48 1 78 4 70 9 -7 4 -22 6 -34 3 -24 -6 -100 12 -109 26 -3 5
49 8 127 6 103 -1 140 -6 165 -19 40 -21 56 -21 96 -1 64 32 127 107 127 152
0 91 -274 121 -421 46 -26 -13 -75 -46 -108 -74 -33 -27 -68 -50 -78 -50 -17
1 -17 1 0 11 10 6 17 22 17 38 0 20 10 36 38 58 39 31 70 102 56 125 -8 12
-43 -28 -44 -49 0 -7 -16 -30 -35 -52 -19 -21 -35 -45 -35 -52 0 -9 -7 -5 -18
9 -10 12 -31 26 -47 30 -39 11 -44 38 -11 53 31 14 35 34 5 26 -20 -5 -20 -5
-3 21 9 15 25 36 34 47 10 11 25 36 35 55 9 19 33 52 53 73 24 24 31 37 21 37
-9 0 -25 -10 -36 -23 -24 -27 -110 -154 -138 -204 -31 -55 -62 -61 -143 -27
-37 15 -86 41 -109 56 -23 15 -46 28 -52 28 -42 0 46 -62 134 -94 28 -10 58
-25 67 -33 13 -12 21 -12 38 -3 14 8 26 8 32 2 6 -6 -1 -13 -21 -20 -17 -6
-36 -22 -42 -36 -11 -24 -13 -24 -25 -8 -12 16 -13 16 -19 -1 -4 -9 -3 -23 3
-30 11 -14 22 -67 13 -67 -3 0 -22 10 -41 22 -32 20 -175 78 -192 78 -5 0 -8
-5 -8 -10 0 -6 21 -20 48 -31 44 -20 71 -33 167 -83 62 -32 21 -31 -107 3
-155 41 -226 52 -329 52 -100 0 -189 -21 -220 -52 -15 -15 -24 -18 -31 -11
-16 16 16 59 57 79 19 9 35 22 35 29 0 19 -52 52 -101 63 -61 14 -239 13 -326
-3 -40 -7 -73 -10 -73 -6 0 12 51 80 60 80 6 0 10 5 10 10 0 25 -39 5 -86 -45
-51 -54 -86 -75 -125 -75 -16 0 -17 3 -7 19 9 15 8 24 -6 45 -17 26 -16 27 14
52 18 15 30 35 30 49 0 20 8 26 58 41 96 28 106 34 140 80 42 57 21 57 -29 0
-31 -35 -46 -44 -84 -49 -25 -4 -58 -13 -74 -21 -25 -14 -33 -13 -72 2 -78 30
-111 55 -104 77 13 42 18 165 6 165 -7 0 -11 -19 -11 -47 0 -27 -7 -70 -15
-96 l-14 -48 34 -21 c19 -11 35 -21 35 -23 0 -2 -5 -16 -10 -30 -14 -38 -48
-30 -73 18 -18 35 -37 49 -37 27 0 -6 7 -27 15 -47 17 -41 11 -53 -30 -56 -26
-2 -30 2 -37 39 -6 28 -22 53 -53 84 -50 49 -58 40 -21 -23 30 -51 41 -113 27
-149 -13 -35 2 -45 19 -13 7 14 19 25 26 25 10 0 10 -7 -2 -35 -17 -42 -18
-86 -1 -108 6 -9 32 -27 55 -40 26 -15 39 -27 33 -32 -19 -11 -69 5 -101 32
-32 26 -38 51 -18 71 9 9 -4 26 -59 77 -39 36 -85 89 -101 118 -32 57 -94 117
-100 98 -2 -6 5 -23 16 -38 10 -16 25 -39 32 -52 l12 -24 -28 20 c-16 11 -48
30 -72 42 -24 12 -70 46 -102 76 -86 79 -130 99 -217 100 -65 0 -76 -3 -117
-32 l-46 -32 37 54 c20 31 33 58 30 61 -3 3 -17 -11 -30 -33z m228 -52 c38
-17 130 -89 123 -97 -2 -1 -30 4 -63 12 -110 26 -194 13 -228 -36 -19 -27 -60
-24 -62 5 -1 11 -5 34 -9 51 -6 28 -3 35 24 54 62 44 132 48 215 11z m-361
-24 c28 -21 17 -52 -19 -52 -24 0 -31 5 -33 24 -2 13 2 28 10 32 18 12 21 11
42 -4z m464 -96 c111 -34 364 -204 346 -232 -3 -6 -19 -7 -37 -3 -18 4 -73 7
-124 5 -85 -2 -94 -1 -132 25 -23 14 -41 31 -41 36 0 9 18 6 135 -28 44 -12
81 -21 83 -19 6 6 -147 52 -208 63 -30 6 -64 13 -75 17 -17 5 -17 5 2 -7 21
-13 20 -14 -29 -40 l-50 -27 -57 57 -56 57 60 5 c33 3 85 1 115 -4 30 -5 71
-9 90 -10 19 -1 63 -16 98 -34 34 -18 62 -30 62 -28 0 10 -134 77 -146 72 -7
-3 -42 1 -77 8 -37 8 -93 11 -134 9 -66 -5 -71 -4 -78 16 -12 39 2 70 38 80
42 13 142 5 215 -18z m-460 -3 c16 -16 15 -53 0 -65 -27 -21 -70 -24 -89 -7
-23 21 -24 42 -2 66 18 20 73 24 91 6z m89 -43 c-2 -5 -15 -10 -28 -10 -20 0
-25 6 -27 33 l-3 34 30 -23 c17 -13 30 -28 28 -34z m1103 -34 c0 -9 -28 -41
-35 -41 -13 0 -55 24 -58 34 -2 6 -1 21 4 34 l9 23 40 -21 c22 -11 40 -24 40
-29z m-142 -87 c69 -34 67 -49 -3 -18 -31 13 -62 24 -70 24 -7 0 -17 5 -20 10
-12 19 41 10 93 -16z m-398 -78 c230 -12 254 -31 53 -41 -89 -5 -159 -4 -197
3 -65 12 -152 51 -149 67 0 6 20 20 44 32 l43 21 45 -38 c46 -37 46 -38 161
-44z m2536 54 c26 -8 23 -9 -21 -8 -49 0 -93 -13 -167 -51 l-38 -19 0 24 c0
22 -3 24 -27 18 -44 -11 -95 -39 -148 -83 -27 -23 -53 -41 -57 -41 -19 0 -4
22 45 65 65 58 131 92 199 104 57 10 167 6 214 -9z m70 -35 c15 -38 -60 -131
-128 -160 -26 -10 -35 -10 -62 4 -22 11 -58 16 -123 16 -50 0 -94 3 -98 7 -8
7 58 28 90 28 15 0 16 3 7 9 -17 10 33 54 85 76 47 20 47 20 66 -20 20 -42 18
-43 -68 -48 -33 -2 -19 -3 32 -3 l91 0 -24 25 c-13 13 -24 27 -24 32 0 4 35
10 78 12 l77 3 -82 2 c-46 1 -83 6 -83 11 0 15 21 19 93 20 52 1 69 -3 73 -14z
m-1587 -11 c-7 -9 -22 -20 -34 -25 -11 -5 -32 -19 -47 -31 -15 -12 -49 -24
-75 -28 l-48 -6 50 52 c49 52 51 53 109 53 53 1 57 -1 45 -15z m117 -25 c23
-19 -1 -28 -45 -18 -20 5 -45 8 -56 8 -11 -1 3 -6 30 -13 47 -11 49 -13 28
-24 -17 -9 -34 -10 -69 -2 -26 6 -49 9 -51 6 -3 -3 12 -8 33 -12 55 -9 63 -15
54 -40 -6 -16 -20 -23 -56 -29 -43 -6 -49 -4 -76 22 l-29 30 68 45 c37 25 75
47 83 50 18 6 67 -7 86 -23z m1164 6 c0 -14 -8 -33 -19 -44 -17 -17 -138 -61
-169 -61 -47 0 123 119 186 130 1 0 2 -11 2 -25z m-1555 0 c-10 -9 -35 -20
-55 -25 -46 -13 -157 -13 -165 0 -4 6 7 10 27 10 18 1 60 7 93 14 33 8 74 14
90 15 29 0 29 0 10 -14z"/>
<path d="M2140 426 c0 -2 42 -18 94 -36 52 -17 97 -37 100 -43 3 -9 5 -8 5 1
1 17 15 9 159 -86 62 -41 115 -72 118 -70 5 6 -172 125 -225 152 -18 10 -81
33 -140 52 -118 37 -111 36 -111 30z"/>
<path d="M2036 399 c3 -5 16 -9 30 -9 14 0 38 -7 54 -15 17 -9 30 -13 30 -11
0 10 -45 30 -82 36 -21 4 -35 3 -32 -1z"/>
<path d="M2148 293 c12 -2 30 -2 40 0 9 3 -1 5 -23 4 -22 0 -30 -2 -17 -4z"/>
<path d="M377 596 c-73 -27 -134 -90 -151 -156 -5 -20 -3 -18 12 8 l18 34 130
1 c109 2 140 -2 201 -21 80 -25 118 -59 87 -77 -37 -21 -77 -62 -71 -72 3 -5
32 -15 64 -22 32 -7 84 -24 115 -36 65 -27 157 -87 141 -92 -7 -3 -51 9 -100
26 -141 48 -249 64 -388 58 -144 -6 -201 -24 -260 -81 -57 -54 -85 -151 -48
-163 9 -3 11 4 8 24 -3 15 -2 33 3 40 11 17 136 19 285 3 l127 -13 -27 -29
-27 -28 112 0 111 0 4 42 4 43 1 -42 2 -43 89 0 89 0 11 44 c13 51 53 90 108
105 45 13 48 9 63 -81 17 -100 43 -92 70 20 6 28 16 52 21 52 15 0 29 -47 29
-96 l0 -44 85 0 c85 0 91 2 136 43 34 31 17 147 -22 147 -6 0 -3 -10 5 -22 23
-33 20 -75 -9 -103 -32 -33 -42 -31 -49 8 -8 42 -43 75 -128 116 -57 29 -73
32 -111 27 -44 -7 -45 -7 -80 41 -42 58 -133 145 -202 194 -163 117 -363 180
-458 145z m146 -21 c71 -18 179 -72 276 -137 105 -71 256 -218 239 -233 -2 -1
-17 -6 -34 -9 -31 -7 -31 -6 -37 36 -5 35 -14 51 -56 90 -63 58 -190 129 -239
133 -20 2 -67 12 -105 22 -65 19 -67 20 -48 37 18 17 22 16 91 -19 94 -47 82
-28 -16 24 -112 61 -137 62 -227 12 -41 -22 -80 -41 -88 -41 -22 0 43 61 86
81 49 23 83 24 158 4z m1 -35 c16 -16 -39 -38 -111 -43 -40 -3 -73 -4 -73 -1
0 2 21 18 48 34 39 26 54 30 87 25 22 -3 44 -10 49 -15z m234 -135 c50 -34 59
-45 46 -57 -6 -7 -95 41 -106 56 -10 14 -10 36 0 36 4 0 31 -16 60 -35z m-13
-46 c27 -13 45 -28 45 -38 0 -10 7 -26 15 -37 23 -31 18 -34 -27 -14 -24 10
-69 24 -100 31 -32 7 -58 16 -58 20 0 10 59 59 71 59 5 0 29 -9 54 -21z m-174
-149 c109 -11 243 -36 269 -51 10 -5 -6 -9 -45 -10 -33 -1 -64 0 -70 1 -5 1
-114 6 -242 10 -227 8 -265 12 -245 32 25 25 176 33 333 18z m-23 -69 l167 -6
-80 -29 c-75 -27 -86 -28 -185 -22 -234 14 -300 19 -300 24 0 3 10 16 22 30
22 23 26 23 116 16 52 -3 169 -9 260 -13z m559 -33 c-3 -7 -5 -2 -5 12 0 14 2
19 5 13 2 -7 2 -19 0 -25z"/>
<path d="M5081 575 c-19 -13 -47 -27 -63 -30 -15 -4 -33 -15 -38 -26 -12 -21
-1 -25 28 -10 9 5 38 19 65 31 32 15 47 28 47 41 0 23 3 23 -39 -6z"/>
<path d="M5100 520 c-7 -16 -19 -35 -28 -42 -25 -21 -92 -130 -92 -150 0 -32
23 -15 52 38 15 27 39 59 54 70 19 16 28 33 31 68 6 53 1 59 -17 16z"/>
<path d="M5 260 c3 -5 18 -10 33 -10 15 0 45 -9 67 -20 40 -20 65 -18 30 3
-53 31 -144 50 -130 27z"/>
<path d="M1500 35 c0 -17 5 -25 13 -23 6 3 12 13 12 23 0 10 -6 20 -12 23 -8
2 -13 -6 -13 -23z"/>
</g>
</svg>